<svg id="Group_294" data-name="Group 294" xmlns="http://www.w3.org/2000/svg" width="468.15" height="361.192" viewBox="0 0 468.15 361.192">
  <path id="Path_1" data-name="Path 1" d="M1268.246,344.493c-8.1-22.583-20.855-29.456-32.988-43.941-14.817-17.691-24.812-30.552-20.964-53.306,6.287-37.183,8.978-129.918-89.46-117.8-35.283,4.346-63.164,31.383-83.448,58.372-17.26,22.966-48.3,24.992-73.3,30.346-30.7,6.578-61.981,16.516-90.388,31.075-58.505,29.986-75.98,73.094-73.594,128.25.721,16.663,3.079,42.911,31.228,73.624,37.993,41.454,93.2,47.006,159.651,27.967,15.211-4.358,29.588-11.193,44.549-16.338a210.239,210.239,0,0,1,48.081-10.44c38.164-3.69,77.726,2.984,114.336-8.411a120.628,120.628,0,0,0,51.137-31.715C1270.576,393.864,1276.8,368.329,1268.246,344.493Z" transform="translate(-803.897 -128.364)" fill="#eae6ff"/>
  <g id="Group_1" data-name="Group 1" transform="translate(31.439 291.337)">
    <path id="Path_2" data-name="Path 2" d="M826.91,351.492c0,5.447,69.123,9.866,154.4,9.866s154.387-4.419,154.387-9.866-69.123-9.869-154.387-9.869S826.91,346.041,826.91,351.492Z" transform="translate(-826.91 -341.623)" fill="#cdccff"/>
  </g>
  <path id="Path_3" data-name="Path 3" d="M916.882,359.418c0,3.41-17.546,6.173-39.194,6.173s-39.193-2.764-39.193-6.173,17.547-6.173,39.193-6.173S916.882,356.008,916.882,359.418Z" transform="translate(-791.23 -46.031)" fill="#cdccff"/>
  <ellipse id="Ellipse_1" data-name="Ellipse 1" cx="65.763" cy="4.885" rx="65.763" ry="4.885" transform="translate(320.623 309.791)" fill="#cdccff"/>
  <g id="Group_7" data-name="Group 7" transform="translate(35.068 204.358)">
    <path id="Path_4" data-name="Path 4" d="M838.871,299.259l-2.525,35.367h33.737l-2.324-35.433Z" transform="translate(-827.084 -270.178)" fill="#d7d7ff"/>
    <g id="Group_4" data-name="Group 4" transform="translate(18.479 31.182)">
      <g id="Group_2" data-name="Group 2" transform="translate(0 0.026)">
        <path id="Path_5" data-name="Path 5" d="M843.093,301.779h0a1.082,1.082,0,0,1,1.156-.981h0a.992.992,0,1,1,0,1.958h0A1.083,1.083,0,0,1,843.093,301.779Zm1.157-.608a.626.626,0,1,0,0,1.212h0a.626.626,0,1,0,0-1.212Zm-.975.608h0Z" transform="translate(-843.093 -300.798)" fill="#eae6ff"/>
      </g>
      <g id="Group_3" data-name="Group 3" transform="translate(11.501)">
        <path id="Path_6" data-name="Path 6" d="M851.512,301.76h0a.9.9,0,0,1,.271-.634,1.248,1.248,0,0,1,.884-.347h0a1.078,1.078,0,0,1,1.156.975.9.9,0,0,1-.35.7,1.265,1.265,0,0,1-.8.276h0A1.082,1.082,0,0,1,851.512,301.76Zm1.154-.608a.877.877,0,0,0-.619.239.522.522,0,0,0-.163.367h0a.715.715,0,0,0,.786.6h0a.9.9,0,0,0,.568-.191.539.539,0,0,0,.213-.415.713.713,0,0,0-.783-.6Z" transform="translate(-851.512 -300.779)" fill="#eae6ff"/>
      </g>
      <path id="Path_7" data-name="Path 7" d="M849.462,308.736c.108,0,.217,0,.328-.005a6.211,6.211,0,0,0,4.791-2.023,7.191,7.191,0,0,0,1.346-5.165.369.369,0,0,0-.422-.316.374.374,0,0,0-.318.422A6.533,6.533,0,0,1,854,306.232a5.5,5.5,0,0,1-4.239,1.751,5.012,5.012,0,0,1-4.1-1.432c-1.648-1.833-1.242-4.847-1.238-4.877a.374.374,0,0,0-.74-.107c-.019.138-.46,3.383,1.418,5.48A5.569,5.569,0,0,0,849.462,308.736Z" transform="translate(-842.897 -300.617)" fill="#eae6ff"/>
    </g>
    <path id="Path_8" data-name="Path 8" d="M850.89,306.516l-4.032,26.295,36.628-.086-3.709-26.277Z" transform="translate(-823.236 -267.522)" fill="#bdc6f9"/>
    <g id="Group_6" data-name="Group 6">
      <path id="Path_9" data-name="Path 9" d="M841.87,339a7.429,7.429,0,1,0,7.429,7.429A7.43,7.43,0,0,0,841.87,339Zm0,10.878a3.449,3.449,0,1,1,3.463-3.449A3.448,3.448,0,0,1,841.87,349.875Z" transform="translate(-827.782 -255.605)" fill="#8784ef"/>
      <path id="Path_10" data-name="Path 10" d="M840.976,339a7.429,7.429,0,1,0,7.429,7.429A7.431,7.431,0,0,0,840.976,339Zm0,10.878a3.449,3.449,0,1,1,3.463-3.449A3.448,3.448,0,0,1,840.976,349.875Z" transform="translate(-828.109 -255.605)" fill="#9aa3f4"/>
      <path id="Path_11" data-name="Path 11" d="M872.594,339a7.429,7.429,0,1,0,7.429,7.429A7.43,7.43,0,0,0,872.594,339Zm0,10.878a3.449,3.449,0,1,1,3.464-3.449A3.447,3.447,0,0,1,872.594,349.875Z" transform="translate(-816.533 -255.605)" fill="#8784ef"/>
      <path id="Path_12" data-name="Path 12" d="M871.7,339a7.429,7.429,0,1,0,7.429,7.429A7.43,7.43,0,0,0,871.7,339Zm0,10.878a3.449,3.449,0,1,1,3.464-3.449A3.448,3.448,0,0,1,871.7,349.875Z" transform="translate(-816.86 -255.605)" fill="#9aa3f4"/>
      <g id="Group_5" data-name="Group 5">
        <path id="Path_13" data-name="Path 13" d="M922.792,277.954H900.468a6.8,6.8,0,0,0-5.771,3.2l-13.492,21.664" transform="translate(-810.66 -277.954)" fill="none" stroke="#9aa3f4" stroke-miterlimit="10" stroke-width="1.5"/>
        <path id="Path_14" data-name="Path 14" d="M840.137,336.831H890.02a5.409,5.409,0,0,0,5.34-4.552l5.161-32.2a5.409,5.409,0,0,0-5.34-6.264h-60.2a5.409,5.409,0,0,0-5.34,6.264l5.161,32.2A5.409,5.409,0,0,0,840.137,336.831Z" transform="translate(-829.566 -272.146)" fill="none" stroke="#9aa3f4" stroke-miterlimit="10" stroke-width="1.5"/>
        <line id="Line_1" data-name="Line 1" y2="43.013" transform="translate(35.512 21.671)" fill="none" stroke="#9aa3f4" stroke-miterlimit="10" stroke-width="1.5"/>
        <line id="Line_2" data-name="Line 2" x1="65.998" transform="translate(2.513 43.178)" fill="none" stroke="#9aa3f4" stroke-miterlimit="10" stroke-width="1.5"/>
        <line id="Line_3" data-name="Line 3" x1="4.269" y2="43.013" transform="translate(50.944 21.671)" fill="none" stroke="#9aa3f4" stroke-miterlimit="10" stroke-width="1.5"/>
        <line id="Line_4" data-name="Line 4" x2="3.94" y2="43.013" transform="translate(16.796 21.671)" fill="none" stroke="#9aa3f4" stroke-miterlimit="10" stroke-width="1.5"/>
        <path id="Path_15" data-name="Path 15" d="M893.509,323.871l8.082,12.018a4.924,4.924,0,0,1-4.086,7.671h-66.1" transform="translate(-828.893 -261.143)" fill="none" stroke="#9aa3f4" stroke-miterlimit="10" stroke-width="1.5"/>
      </g>
    </g>
  </g>
  <g id="Group_233" data-name="Group 233" transform="translate(120.932 108.148)">
    <rect id="Rectangle_2" data-name="Rectangle 2" width="68.427" height="18.407" transform="translate(84.03 164.646)" fill="#4a41a3"/>
    <rect id="Rectangle_3" data-name="Rectangle 3" width="237.207" height="170.655" rx="9.387" fill="#5851bc"/>
    <rect id="Rectangle_4" data-name="Rectangle 4" width="223.235" height="148.059" rx="5.768" transform="translate(6.626 6.222)" fill="#c4c3fc"/>
    <path id="Rectangle_5" data-name="Rectangle 5" d="M7.322,0H119.927a7.322,7.322,0,0,1,7.322,7.322V11.6a0,0,0,0,1,0,0H0a0,0,0,0,1,0,0V7.322A7.322,7.322,0,0,1,7.322,0Z" transform="translate(54.618 181.452)" fill="#5851bc"/>
    <g id="Group_10" data-name="Group 10" transform="translate(59.936 16.449)" opacity="0.35">
      <g id="Group_9" data-name="Group 9">
        <g id="Group_8" data-name="Group 8">
          <rect id="Rectangle_6" data-name="Rectangle 6" width="156.198" height="104.993" rx="5.01" fill="#fff"/>
        </g>
      </g>
    </g>
    <g id="Group_118" data-name="Group 118" transform="translate(59.936 16.449)" opacity="0.25" style="mix-blend-mode: multiply;isolation: isolate">
      <g id="Group_117" data-name="Group 117" transform="translate(10.351 15.877)">
        <g id="Group_13" data-name="Group 13" transform="translate(4.494 60.819)">
          <g id="Group_12" data-name="Group 12">
            <g id="Group_11" data-name="Group 11">
              <rect id="Rectangle_7" data-name="Rectangle 7" width="6.804" height="17.081" fill="#fca70c"/>
            </g>
          </g>
        </g>
        <g id="Group_16" data-name="Group 16" transform="translate(19.825 45.824)">
          <g id="Group_15" data-name="Group 15">
            <g id="Group_14" data-name="Group 14">
              <rect id="Rectangle_8" data-name="Rectangle 8" width="6.804" height="32.077" fill="#b1affd"/>
            </g>
          </g>
        </g>
        <g id="Group_19" data-name="Group 19" transform="translate(35.157 49.141)">
          <g id="Group_18" data-name="Group 18">
            <g id="Group_17" data-name="Group 17">
              <rect id="Rectangle_9" data-name="Rectangle 9" width="6.804" height="28.76" fill="#fca70c"/>
            </g>
          </g>
        </g>
        <g id="Group_22" data-name="Group 22" transform="translate(50.49 32.903)">
          <g id="Group_21" data-name="Group 21">
            <g id="Group_20" data-name="Group 20">
              <rect id="Rectangle_10" data-name="Rectangle 10" width="6.804" height="44.998" fill="#b1affd"/>
            </g>
          </g>
        </g>
        <g id="Group_25" data-name="Group 25" transform="translate(19.825 45.824)" opacity="0.15" style="mix-blend-mode: multiply;isolation: isolate">
          <g id="Group_24" data-name="Group 24">
            <g id="Group_23" data-name="Group 23">
              <rect id="Rectangle_11" data-name="Rectangle 11" width="3.123" height="32.077" opacity="0.26"/>
            </g>
          </g>
        </g>
        <g id="Group_28" data-name="Group 28" transform="translate(4.494 60.819)" opacity="0.15" style="mix-blend-mode: multiply;isolation: isolate">
          <g id="Group_27" data-name="Group 27">
            <g id="Group_26" data-name="Group 26">
              <rect id="Rectangle_12" data-name="Rectangle 12" width="3.123" height="17.081" opacity="0.26"/>
            </g>
          </g>
        </g>
        <g id="Group_31" data-name="Group 31" transform="translate(50.49 32.903)" opacity="0.62" style="mix-blend-mode: multiply;isolation: isolate">
          <g id="Group_30" data-name="Group 30">
            <g id="Group_29" data-name="Group 29">
              <rect id="Rectangle_13" data-name="Rectangle 13" width="3.123" height="44.998" opacity="0.26"/>
            </g>
          </g>
        </g>
        <g id="Group_34" data-name="Group 34" transform="translate(35.157 49.141)" opacity="0.15" style="mix-blend-mode: multiply;isolation: isolate">
          <g id="Group_33" data-name="Group 33">
            <g id="Group_32" data-name="Group 32">
              <rect id="Rectangle_14" data-name="Rectangle 14" width="3.123" height="28.76" opacity="0.26"/>
            </g>
          </g>
        </g>
        <g id="Group_37" data-name="Group 37" transform="translate(0 17.762)">
          <g id="Group_36" data-name="Group 36">
            <g id="Group_35" data-name="Group 35">
              <path id="Path_16" data-name="Path 16" d="M1004.763,309.033H943.869V244.193h.929V308.1h59.965Z" transform="translate(-943.869 -244.193)" fill="#d5dbda"/>
            </g>
          </g>
        </g>
        <g id="Group_40" data-name="Group 40" transform="translate(5.634 23.244)">
          <g id="Group_39" data-name="Group 39">
            <g id="Group_38" data-name="Group 38">
              <path id="Path_17" data-name="Path 17" d="M948.614,277.781l-.621-.691,15.929-14.3,14.754,3.205,15.977-17.786.691.621-16.338,18.188L964.19,263.8Z" transform="translate(-947.993 -248.205)" fill="#d5dbda"/>
            </g>
          </g>
        </g>
        <g id="Group_43" data-name="Group 43" transform="translate(49.733 20.616)">
          <g id="Group_42" data-name="Group 42">
            <g id="Group_41" data-name="Group 41">
              <path id="Path_18" data-name="Path 18" d="M984.779,252.158l-4.5-4.32,5.816-1.556Z" transform="translate(-980.274 -246.282)" fill="#d5dbda"/>
            </g>
          </g>
        </g>
        <g id="Group_56" data-name="Group 56" transform="translate(66.66 59.608)">
          <g id="Group_46" data-name="Group 46">
            <g id="Group_45" data-name="Group 45">
              <g id="Group_44" data-name="Group 44">
                <rect id="Rectangle_15" data-name="Rectangle 15" width="4.673" height="4.673" fill="#b1affd"/>
              </g>
            </g>
          </g>
          <g id="Group_49" data-name="Group 49" transform="translate(0 8.187)">
            <g id="Group_48" data-name="Group 48">
              <g id="Group_47" data-name="Group 47">
                <rect id="Rectangle_16" data-name="Rectangle 16" width="4.673" height="4.673" fill="#fca70c"/>
              </g>
            </g>
          </g>
          <g id="Group_52" data-name="Group 52" transform="translate(5.96 10.204)">
            <g id="Group_51" data-name="Group 51">
              <g id="Group_50" data-name="Group 50">
                <rect id="Rectangle_17" data-name="Rectangle 17" width="14.812" height="2.655" fill="#efefef"/>
              </g>
            </g>
          </g>
          <g id="Group_55" data-name="Group 55" transform="translate(5.96 2.017)">
            <g id="Group_54" data-name="Group 54">
              <g id="Group_53" data-name="Group 53">
                <rect id="Rectangle_18" data-name="Rectangle 18" width="14.812" height="2.655" fill="#efefef"/>
              </g>
            </g>
          </g>
        </g>
        <g id="Group_69" data-name="Group 69" transform="translate(94.139 59.608)">
          <g id="Group_59" data-name="Group 59">
            <g id="Group_58" data-name="Group 58">
              <g id="Group_57" data-name="Group 57">
                <rect id="Rectangle_19" data-name="Rectangle 19" width="4.673" height="4.673" fill="#b1affd"/>
              </g>
            </g>
          </g>
          <g id="Group_62" data-name="Group 62" transform="translate(0 8.187)">
            <g id="Group_61" data-name="Group 61">
              <g id="Group_60" data-name="Group 60">
                <rect id="Rectangle_20" data-name="Rectangle 20" width="4.673" height="4.673" fill="#fca70c"/>
              </g>
            </g>
          </g>
          <g id="Group_65" data-name="Group 65" transform="translate(5.96 10.204)">
            <g id="Group_64" data-name="Group 64">
              <g id="Group_63" data-name="Group 63">
                <rect id="Rectangle_21" data-name="Rectangle 21" width="14.812" height="2.655" fill="#efefef"/>
              </g>
            </g>
          </g>
          <g id="Group_68" data-name="Group 68" transform="translate(5.96 2.017)">
            <g id="Group_67" data-name="Group 67">
              <g id="Group_66" data-name="Group 66">
                <rect id="Rectangle_22" data-name="Rectangle 22" width="14.812" height="2.655" fill="#efefef"/>
              </g>
            </g>
          </g>
        </g>
        <g id="Group_82" data-name="Group 82" transform="translate(118.884 59.608)">
          <g id="Group_72" data-name="Group 72">
            <g id="Group_71" data-name="Group 71">
              <g id="Group_70" data-name="Group 70">
                <rect id="Rectangle_23" data-name="Rectangle 23" width="4.673" height="4.673" fill="#b1affd"/>
              </g>
            </g>
          </g>
          <g id="Group_75" data-name="Group 75" transform="translate(0 8.187)">
            <g id="Group_74" data-name="Group 74">
              <g id="Group_73" data-name="Group 73">
                <rect id="Rectangle_24" data-name="Rectangle 24" width="4.673" height="4.673" fill="#fca70c"/>
              </g>
            </g>
          </g>
          <g id="Group_78" data-name="Group 78" transform="translate(5.96 10.204)">
            <g id="Group_77" data-name="Group 77">
              <g id="Group_76" data-name="Group 76">
                <rect id="Rectangle_25" data-name="Rectangle 25" width="9.747" height="2.655" fill="#efefef"/>
              </g>
            </g>
          </g>
          <g id="Group_81" data-name="Group 81" transform="translate(5.96 2.017)">
            <g id="Group_80" data-name="Group 80">
              <g id="Group_79" data-name="Group 79">
                <rect id="Rectangle_26" data-name="Rectangle 26" width="9.747" height="2.655" fill="#efefef"/>
              </g>
            </g>
          </g>
        </g>
        <g id="Group_116" data-name="Group 116">
          <g id="Group_85" data-name="Group 85" transform="translate(67.535 14.963)">
            <g id="Group_84" data-name="Group 84">
              <g id="Group_83" data-name="Group 83">
                <rect id="Rectangle_27" data-name="Rectangle 27" width="67.056" height="1.219" fill="#efefef"/>
              </g>
            </g>
          </g>
          <g id="Group_88" data-name="Group 88">
            <g id="Group_87" data-name="Group 87">
              <g id="Group_86" data-name="Group 86">
                <rect id="Rectangle_28" data-name="Rectangle 28" width="134.591" height="2.79" fill="#efefef"/>
              </g>
            </g>
          </g>
          <g id="Group_91" data-name="Group 91" transform="translate(67.333 18.755)">
            <g id="Group_90" data-name="Group 90">
              <g id="Group_89" data-name="Group 89">
                <rect id="Rectangle_29" data-name="Rectangle 29" width="67.257" height="1.219" fill="#efefef"/>
              </g>
            </g>
          </g>
          <g id="Group_94" data-name="Group 94" transform="translate(67.333 11.172)">
            <g id="Group_93" data-name="Group 93">
              <g id="Group_92" data-name="Group 92">
                <rect id="Rectangle_30" data-name="Rectangle 30" width="67.257" height="1.219" fill="#efefef"/>
              </g>
            </g>
          </g>
          <g id="Group_97" data-name="Group 97" transform="translate(67.333 22.546)">
            <g id="Group_96" data-name="Group 96">
              <g id="Group_95" data-name="Group 95">
                <rect id="Rectangle_31" data-name="Rectangle 31" width="67.257" height="1.219" fill="#efefef"/>
              </g>
            </g>
          </g>
          <g id="Group_100" data-name="Group 100" transform="translate(67.333 26.338)">
            <g id="Group_99" data-name="Group 99">
              <g id="Group_98" data-name="Group 98">
                <rect id="Rectangle_32" data-name="Rectangle 32" width="67.257" height="1.219" fill="#efefef"/>
              </g>
            </g>
          </g>
          <g id="Group_103" data-name="Group 103" transform="translate(67.333 30.129)">
            <g id="Group_102" data-name="Group 102">
              <g id="Group_101" data-name="Group 101">
                <rect id="Rectangle_33" data-name="Rectangle 33" width="67.257" height="1.219" fill="#efefef"/>
              </g>
            </g>
          </g>
          <g id="Group_106" data-name="Group 106" transform="translate(67.333 33.92)">
            <g id="Group_105" data-name="Group 105">
              <g id="Group_104" data-name="Group 104">
                <rect id="Rectangle_34" data-name="Rectangle 34" width="67.257" height="1.219" fill="#efefef"/>
              </g>
            </g>
          </g>
          <g id="Group_109" data-name="Group 109" transform="translate(67.333 37.712)">
            <g id="Group_108" data-name="Group 108">
              <g id="Group_107" data-name="Group 107">
                <rect id="Rectangle_35" data-name="Rectangle 35" width="67.257" height="1.219" fill="#efefef"/>
              </g>
            </g>
          </g>
          <g id="Group_112" data-name="Group 112" transform="translate(67.333 41.503)">
            <g id="Group_111" data-name="Group 111">
              <g id="Group_110" data-name="Group 110">
                <rect id="Rectangle_36" data-name="Rectangle 36" width="67.257" height="1.219" fill="#efefef"/>
              </g>
            </g>
          </g>
          <g id="Group_115" data-name="Group 115" transform="translate(75.568 45.294)">
            <g id="Group_114" data-name="Group 114">
              <g id="Group_113" data-name="Group 113">
                <rect id="Rectangle_37" data-name="Rectangle 37" width="59.023" height="1.219" fill="#efefef"/>
              </g>
            </g>
          </g>
        </g>
      </g>
      <path id="Path_19" data-name="Path 19" d="M1085.646,219.569H943.136a6.844,6.844,0,0,0-6.844,6.844v5.99h156.2v-5.99A6.844,6.844,0,0,0,1085.646,219.569Z" transform="translate(-936.292 -219.569)" fill="#7a7ae5"/>
      <path id="Path_20" data-name="Path 20" d="M1036.981,224.967a1.973,1.973,0,1,1-1.973-1.973A1.973,1.973,0,0,1,1036.981,224.967Z" transform="translate(-900.872 -218.315)" fill="#cfcfff"/>
      <circle id="Ellipse_2" data-name="Ellipse 2" cx="1.973" cy="1.973" r="1.973" transform="translate(140.205 4.679)" fill="#cfcfff"/>
      <circle id="Ellipse_3" data-name="Ellipse 3" cx="1.973" cy="1.973" r="1.973" transform="translate(148.249 4.679)" fill="#cfcfff"/>
    </g>
    <g id="Group_232" data-name="Group 232" transform="translate(18.444 35.584)">
      <g id="Group_121" data-name="Group 121" transform="translate(0 4.089)">
        <g id="Group_120" data-name="Group 120">
          <g id="Group_119" data-name="Group 119">
            <rect id="Rectangle_38" data-name="Rectangle 38" width="156.198" height="104.993" rx="5.01" fill="#c4c3fc" opacity="0.55" style="mix-blend-mode: multiply;isolation: isolate"/>
          </g>
        </g>
      </g>
      <g id="Group_124" data-name="Group 124" transform="translate(3.169)">
        <g id="Group_123" data-name="Group 123">
          <g id="Group_122" data-name="Group 122">
            <rect id="Rectangle_39" data-name="Rectangle 39" width="156.198" height="104.993" rx="5.01" fill="#fff"/>
          </g>
        </g>
      </g>
      <g id="Group_231" data-name="Group 231" transform="translate(13.52 15.877)">
        <g id="Group_127" data-name="Group 127" transform="translate(4.493 60.819)">
          <g id="Group_126" data-name="Group 126">
            <g id="Group_125" data-name="Group 125">
              <rect id="Rectangle_40" data-name="Rectangle 40" width="6.804" height="17.081" fill="#fca70c"/>
            </g>
          </g>
        </g>
        <g id="Group_130" data-name="Group 130" transform="translate(19.825 45.824)">
          <g id="Group_129" data-name="Group 129">
            <g id="Group_128" data-name="Group 128">
              <rect id="Rectangle_41" data-name="Rectangle 41" width="6.804" height="32.077" fill="#b1affd"/>
            </g>
          </g>
        </g>
        <g id="Group_133" data-name="Group 133" transform="translate(35.158 49.141)">
          <g id="Group_132" data-name="Group 132">
            <g id="Group_131" data-name="Group 131">
              <rect id="Rectangle_42" data-name="Rectangle 42" width="6.804" height="28.76" fill="#fca70c"/>
            </g>
          </g>
        </g>
        <g id="Group_136" data-name="Group 136" transform="translate(50.49 32.903)">
          <g id="Group_135" data-name="Group 135">
            <g id="Group_134" data-name="Group 134">
              <rect id="Rectangle_43" data-name="Rectangle 43" width="6.804" height="44.998" fill="#b1affd"/>
            </g>
          </g>
        </g>
        <g id="Group_139" data-name="Group 139" transform="translate(19.825 45.824)" opacity="0.15" style="mix-blend-mode: multiply;isolation: isolate">
          <g id="Group_138" data-name="Group 138">
            <g id="Group_137" data-name="Group 137">
              <rect id="Rectangle_44" data-name="Rectangle 44" width="3.123" height="32.077" opacity="0.26"/>
            </g>
          </g>
        </g>
        <g id="Group_142" data-name="Group 142" transform="translate(4.493 60.819)" opacity="0.15" style="mix-blend-mode: multiply;isolation: isolate">
          <g id="Group_141" data-name="Group 141">
            <g id="Group_140" data-name="Group 140">
              <rect id="Rectangle_45" data-name="Rectangle 45" width="3.123" height="17.081" opacity="0.26"/>
            </g>
          </g>
        </g>
        <g id="Group_145" data-name="Group 145" transform="translate(50.49 32.903)" opacity="0.62" style="mix-blend-mode: multiply;isolation: isolate">
          <g id="Group_144" data-name="Group 144">
            <g id="Group_143" data-name="Group 143">
              <rect id="Rectangle_46" data-name="Rectangle 46" width="3.123" height="44.998" opacity="0.26"/>
            </g>
          </g>
        </g>
        <g id="Group_148" data-name="Group 148" transform="translate(35.158 49.141)" opacity="0.15" style="mix-blend-mode: multiply;isolation: isolate">
          <g id="Group_147" data-name="Group 147">
            <g id="Group_146" data-name="Group 146">
              <rect id="Rectangle_47" data-name="Rectangle 47" width="3.123" height="28.76" opacity="0.26"/>
            </g>
          </g>
        </g>
        <g id="Group_151" data-name="Group 151" transform="translate(0 23.555)">
          <g id="Group_150" data-name="Group 150">
            <g id="Group_149" data-name="Group 149">
              <path id="Path_21" data-name="Path 21" d="M976.71,321.488H915.817V262.44h.929v58.119H976.71Z" transform="translate(-915.817 -262.44)" fill="#d5dbda"/>
            </g>
          </g>
        </g>
        <g id="Group_154" data-name="Group 154" transform="translate(5.634 23.244)">
          <g id="Group_153" data-name="Group 153">
            <g id="Group_152" data-name="Group 152">
              <path id="Path_22" data-name="Path 22" d="M920.561,291.788l-.62-.691,15.929-14.3L950.625,280,966.6,262.212l.691.621-16.338,18.188L936.137,277.8Z" transform="translate(-919.941 -262.212)" fill="#d5dbda"/>
            </g>
          </g>
        </g>
        <g id="Group_157" data-name="Group 157" transform="translate(49.733 20.616)">
          <g id="Group_156" data-name="Group 156">
            <g id="Group_155" data-name="Group 155">
              <path id="Path_23" data-name="Path 23" d="M956.726,266.165l-4.505-4.32,5.816-1.556Z" transform="translate(-952.221 -260.289)" fill="#d5dbda"/>
            </g>
          </g>
        </g>
        <g id="Group_170" data-name="Group 170" transform="translate(66.66 59.608)">
          <g id="Group_160" data-name="Group 160">
            <g id="Group_159" data-name="Group 159">
              <g id="Group_158" data-name="Group 158">
                <rect id="Rectangle_48" data-name="Rectangle 48" width="4.673" height="4.673" fill="#b1affd"/>
              </g>
            </g>
          </g>
          <g id="Group_163" data-name="Group 163" transform="translate(0 8.187)">
            <g id="Group_162" data-name="Group 162">
              <g id="Group_161" data-name="Group 161">
                <rect id="Rectangle_49" data-name="Rectangle 49" width="4.673" height="4.673" fill="#fca70c"/>
              </g>
            </g>
          </g>
          <g id="Group_166" data-name="Group 166" transform="translate(5.96 10.204)">
            <g id="Group_165" data-name="Group 165">
              <g id="Group_164" data-name="Group 164">
                <rect id="Rectangle_50" data-name="Rectangle 50" width="14.812" height="2.655" fill="#efefef"/>
              </g>
            </g>
          </g>
          <g id="Group_169" data-name="Group 169" transform="translate(5.96 2.017)">
            <g id="Group_168" data-name="Group 168">
              <g id="Group_167" data-name="Group 167">
                <rect id="Rectangle_51" data-name="Rectangle 51" width="14.812" height="2.655" fill="#efefef"/>
              </g>
            </g>
          </g>
        </g>
        <g id="Group_183" data-name="Group 183" transform="translate(94.139 59.608)">
          <g id="Group_173" data-name="Group 173">
            <g id="Group_172" data-name="Group 172">
              <g id="Group_171" data-name="Group 171">
                <rect id="Rectangle_52" data-name="Rectangle 52" width="4.673" height="4.673" fill="#b1affd"/>
              </g>
            </g>
          </g>
          <g id="Group_176" data-name="Group 176" transform="translate(0 8.187)">
            <g id="Group_175" data-name="Group 175">
              <g id="Group_174" data-name="Group 174">
                <rect id="Rectangle_53" data-name="Rectangle 53" width="4.673" height="4.673" fill="#fca70c"/>
              </g>
            </g>
          </g>
          <g id="Group_179" data-name="Group 179" transform="translate(5.96 10.204)">
            <g id="Group_178" data-name="Group 178">
              <g id="Group_177" data-name="Group 177">
                <rect id="Rectangle_54" data-name="Rectangle 54" width="14.812" height="2.655" fill="#efefef"/>
              </g>
            </g>
          </g>
          <g id="Group_182" data-name="Group 182" transform="translate(5.96 2.017)">
            <g id="Group_181" data-name="Group 181">
              <g id="Group_180" data-name="Group 180">
                <rect id="Rectangle_55" data-name="Rectangle 55" width="14.812" height="2.655" fill="#efefef"/>
              </g>
            </g>
          </g>
        </g>
        <g id="Group_196" data-name="Group 196" transform="translate(118.884 59.608)">
          <g id="Group_186" data-name="Group 186">
            <g id="Group_185" data-name="Group 185">
              <g id="Group_184" data-name="Group 184">
                <rect id="Rectangle_56" data-name="Rectangle 56" width="4.673" height="4.673" fill="#b1affd"/>
              </g>
            </g>
          </g>
          <g id="Group_189" data-name="Group 189" transform="translate(0 8.187)">
            <g id="Group_188" data-name="Group 188">
              <g id="Group_187" data-name="Group 187">
                <rect id="Rectangle_57" data-name="Rectangle 57" width="4.673" height="4.673" fill="#fca70c"/>
              </g>
            </g>
          </g>
          <g id="Group_192" data-name="Group 192" transform="translate(5.96 10.204)">
            <g id="Group_191" data-name="Group 191">
              <g id="Group_190" data-name="Group 190">
                <rect id="Rectangle_58" data-name="Rectangle 58" width="9.747" height="2.655" fill="#efefef"/>
              </g>
            </g>
          </g>
          <g id="Group_195" data-name="Group 195" transform="translate(5.96 2.017)">
            <g id="Group_194" data-name="Group 194">
              <g id="Group_193" data-name="Group 193">
                <rect id="Rectangle_59" data-name="Rectangle 59" width="9.747" height="2.655" fill="#efefef"/>
              </g>
            </g>
          </g>
        </g>
        <g id="Group_230" data-name="Group 230">
          <g id="Group_199" data-name="Group 199" transform="translate(67.535 14.963)">
            <g id="Group_198" data-name="Group 198">
              <g id="Group_197" data-name="Group 197">
                <rect id="Rectangle_60" data-name="Rectangle 60" width="67.056" height="1.219" fill="#efefef"/>
              </g>
            </g>
          </g>
          <g id="Group_202" data-name="Group 202">
            <g id="Group_201" data-name="Group 201">
              <g id="Group_200" data-name="Group 200">
                <rect id="Rectangle_61" data-name="Rectangle 61" width="134.591" height="2.79" fill="#efefef"/>
              </g>
            </g>
          </g>
          <g id="Group_205" data-name="Group 205" transform="translate(67.333 18.755)">
            <g id="Group_204" data-name="Group 204">
              <g id="Group_203" data-name="Group 203">
                <rect id="Rectangle_62" data-name="Rectangle 62" width="67.257" height="1.219" fill="#efefef"/>
              </g>
            </g>
          </g>
          <g id="Group_208" data-name="Group 208" transform="translate(67.333 11.172)">
            <g id="Group_207" data-name="Group 207">
              <g id="Group_206" data-name="Group 206">
                <rect id="Rectangle_63" data-name="Rectangle 63" width="67.257" height="1.219" fill="#efefef"/>
              </g>
            </g>
          </g>
          <g id="Group_211" data-name="Group 211" transform="translate(67.333 22.546)">
            <g id="Group_210" data-name="Group 210">
              <g id="Group_209" data-name="Group 209">
                <rect id="Rectangle_64" data-name="Rectangle 64" width="67.257" height="1.219" fill="#efefef"/>
              </g>
            </g>
          </g>
          <g id="Group_214" data-name="Group 214" transform="translate(67.333 26.338)">
            <g id="Group_213" data-name="Group 213">
              <g id="Group_212" data-name="Group 212">
                <rect id="Rectangle_65" data-name="Rectangle 65" width="67.257" height="1.219" fill="#efefef"/>
              </g>
            </g>
          </g>
          <g id="Group_217" data-name="Group 217" transform="translate(67.333 30.129)">
            <g id="Group_216" data-name="Group 216">
              <g id="Group_215" data-name="Group 215">
                <rect id="Rectangle_66" data-name="Rectangle 66" width="67.257" height="1.219" fill="#efefef"/>
              </g>
            </g>
          </g>
          <g id="Group_220" data-name="Group 220" transform="translate(67.333 33.92)">
            <g id="Group_219" data-name="Group 219">
              <g id="Group_218" data-name="Group 218">
                <rect id="Rectangle_67" data-name="Rectangle 67" width="67.257" height="1.219" fill="#efefef"/>
              </g>
            </g>
          </g>
          <g id="Group_223" data-name="Group 223" transform="translate(67.333 37.712)">
            <g id="Group_222" data-name="Group 222">
              <g id="Group_221" data-name="Group 221">
                <rect id="Rectangle_68" data-name="Rectangle 68" width="67.257" height="1.219" fill="#efefef"/>
              </g>
            </g>
          </g>
          <g id="Group_226" data-name="Group 226" transform="translate(67.333 41.503)">
            <g id="Group_225" data-name="Group 225">
              <g id="Group_224" data-name="Group 224">
                <rect id="Rectangle_69" data-name="Rectangle 69" width="67.257" height="1.219" fill="#efefef"/>
              </g>
            </g>
          </g>
          <g id="Group_229" data-name="Group 229" transform="translate(75.568 45.294)">
            <g id="Group_228" data-name="Group 228">
              <g id="Group_227" data-name="Group 227">
                <rect id="Rectangle_70" data-name="Rectangle 70" width="59.023" height="1.219" fill="#efefef"/>
              </g>
            </g>
          </g>
        </g>
      </g>
      <path id="Path_24" data-name="Path 24" d="M1057.595,233.576H915.083a6.845,6.845,0,0,0-6.844,6.844v5.99h156.2v-5.99A6.844,6.844,0,0,0,1057.595,233.576Z" transform="translate(-905.071 -233.576)" fill="#a4a4f7"/>
      <path id="Path_25" data-name="Path 25" d="M1008.929,238.974a1.973,1.973,0,1,1-1.974-1.973A1.974,1.974,0,0,1,1008.929,238.974Z" transform="translate(-869.651 -232.322)" fill="#cfcfff"/>
      <path id="Path_26" data-name="Path 26" d="M1014.816,238.974a1.973,1.973,0,1,1-1.973-1.973A1.973,1.973,0,0,1,1014.816,238.974Z" transform="translate(-867.496 -232.322)" fill="#cfcfff"/>
      <path id="Path_27" data-name="Path 27" d="M1020.7,238.974a1.973,1.973,0,1,1-1.973-1.973A1.974,1.974,0,0,1,1020.7,238.974Z" transform="translate(-865.34 -232.322)" fill="#cfcfff"/>
    </g>
    <path id="Path_28" data-name="Path 28" d="M1068.121,207.616h-36.578q.375,17.791.6,35.586a14.105,14.105,0,0,1-.661,5.362l-.056,0c-.485-.026-.27.126-.437.993,0,.012-.008.027-.011.04-1.479,2.415-4.366,3.736-7.176,4.358a.714.714,0,0,0,.045.392.9.9,0,0,0-.283,1.105c.169.4,2.272.933,5.128.626a13.614,13.614,0,0,0,3.168-.878,4.963,4.963,0,0,0,1.167-.8,4.034,4.034,0,0,0,1.07-.258l.116.109,3.273-1.425s-.358-2.066-.64-3.142a1.881,1.881,0,0,0-.216-.5,150.037,150.037,0,0,0,6.422-22.827c-.6,9.635-4.057,29.208-4.314,29.881a5.024,5.024,0,0,1-4.16,2.921c-.775.064-4.585-.156-4.173,1.6.1.418,2.075,1.313,4.943,1.5a13.569,13.569,0,0,0,3.272-.316,6.072,6.072,0,0,0,2.04-1.111l.441.589,3.47-.836s-.006-.9-.028-1.99a4.425,4.425,0,0,0-.743-2.116l.048-1.974,1.924-.227s3.863-12.5,5.7-16.746a37.475,37.475,0,0,0,2.076-5.324,38.514,38.514,0,0,0,.8-6.661,58.94,58.94,0,0,1,2.235-12.027,1.781,1.781,0,0,1,.327-.7,1.862,1.862,0,0,1,1.265-.441c4.917-.451,7.171.385,10.247-.568,4.056-1.258,4.487-3.1,4.685-3.187A12.767,12.767,0,0,0,1068.121,207.616Z" transform="translate(-844.434 -207.497)" fill="#5851bc" opacity="0.35" style="mix-blend-mode: multiply;isolation: isolate"/>
    <path id="Path_29" data-name="Path 29" d="M1073.449,278.917V236.5c-6.327,8.281-12.586,15.7-18.913,23.984-2.746,3.593-13.5,15.495-6.163,20.271,1.872,1.219,5.131,1.163,6.76,1.277,5.85.415,11.646-1.2,17.333-2.811C1072.793,279.123,1073.122,279.025,1073.449,278.917Z" transform="translate(-836.242 -196.923)" fill="#5851bc" opacity="0.35" style="mix-blend-mode: multiply;isolation: isolate"/>
    <path id="Path_30" data-name="Path 30" d="M1072.049,275.365l-3.522.272-.065-.2-2.74.212-.825-2.332a3.537,3.537,0,0,0-3.455-2.193,1.887,1.887,0,0,0-1.751,2.619c.143.4.544,1.534.818,2.309l-2.884.223.062.2-5.941.46c-.937.005-2.324,1.217-2.023,2.064l.048.124a1.223,1.223,0,0,0,.026.22l5.139,14.5-.13,61.062h5.962l11.283-43.862Zm-9.268-.454a1.983,1.983,0,0,1-1.937-1.231,1.057,1.057,0,0,1,.981-1.469,1.984,1.984,0,0,1,1.939,1.229A1.059,1.059,0,0,1,1062.782,274.912Z" transform="translate(-834.843 -184.248)" fill="#5851bc" opacity="0.35" style="mix-blend-mode: multiply;isolation: isolate"/>
    <path id="Path_31" data-name="Path 31" d="M907.328,256.516a29.832,29.832,0,0,0-3.527,5.919,5.887,5.887,0,0,1-3.29,2.96c-2.609,1.194-5.406,2.336-8.092,3.392v6.928c5.463-3.286,10.409-6.353,10.492-6.384,4.176,1.6,7.669-1.876,8.79-4.381.5-1.123-.253-1.582-.286-2.116-.019-.279.34-1.9.286-2.113-.327-1.463-4.254-.184-3.927-.881a4.991,4.991,0,0,1,1.635-2.449c1.922-1.313,3.4-2.771,3.4-3.321C912.8,253.118,907.781,256.016,907.328,256.516Z" transform="translate(-892.419 -190.559)" fill="#5851bc" opacity="0.35" style="mix-blend-mode: multiply;isolation: isolate"/>
  </g>
  <g id="Group_237" data-name="Group 237" transform="translate(347.459 209.311)">
    <rect id="Rectangle_71" data-name="Rectangle 71" width="92.226" height="106.654" rx="6.949" fill="#a2a7f4"/>
    <g id="Group_235" data-name="Group 235" transform="translate(8.531 11.163)">
      <g id="Group_234" data-name="Group 234">
        <rect id="Rectangle_72" data-name="Rectangle 72" width="77.998" height="21.907" rx="1.773" fill="#9090f4"/>
        <rect id="Rectangle_73" data-name="Rectangle 73" width="20.056" height="13.906" rx="1.773" transform="translate(0 29.675)" fill="#9090f4"/>
        <rect id="Rectangle_74" data-name="Rectangle 74" width="20.056" height="13.906" rx="1.773" transform="translate(28.971 29.675)" fill="#9090f4"/>
        <rect id="Rectangle_75" data-name="Rectangle 75" width="20.056" height="13.906" rx="1.773" transform="translate(57.942 29.675)" fill="#9090f4"/>
        <rect id="Rectangle_76" data-name="Rectangle 76" width="20.056" height="13.906" rx="1.773" transform="translate(0 52.03)" fill="#9090f4"/>
        <rect id="Rectangle_77" data-name="Rectangle 77" width="20.056" height="13.906" rx="1.773" transform="translate(28.971 52.03)" fill="#9090f4"/>
        <rect id="Rectangle_78" data-name="Rectangle 78" width="20.056" height="13.906" rx="1.773" transform="translate(0 74.384)" fill="#9090f4"/>
        <rect id="Rectangle_79" data-name="Rectangle 79" width="20.056" height="13.906" rx="1.773" transform="translate(28.971 74.384)" fill="#9090f4"/>
      </g>
      <rect id="Rectangle_80" data-name="Rectangle 80" width="20.056" height="36.26" rx="1.773" transform="translate(57.942 52.03)" fill="#9090f4"/>
    </g>
    <g id="Group_236" data-name="Group 236" transform="translate(7.114 9.746)" opacity="0.45">
      <path id="Path_32" data-name="Path 32" d="M1063.444,291.136a2.423,2.423,0,0,1,2.422-2.422h73.155a2.422,2.422,0,0,1,2.422,2.422V308.2a2.421,2.421,0,0,1-2.422,2.422h-73.155" transform="translate(-1063.444 -288.714)" fill="#e2deff"/>
      <rect id="Rectangle_81" data-name="Rectangle 81" width="20.056" height="13.906" rx="1.773" transform="translate(0 29.675)" fill="#e2deff"/>
      <rect id="Rectangle_82" data-name="Rectangle 82" width="20.056" height="13.906" rx="1.773" transform="translate(28.972 29.675)" fill="#e2deff"/>
      <rect id="Rectangle_83" data-name="Rectangle 83" width="20.056" height="13.906" rx="1.773" transform="translate(57.943 29.675)" fill="#e2deff"/>
      <rect id="Rectangle_84" data-name="Rectangle 84" width="20.056" height="13.906" rx="1.773" transform="translate(0 52.029)" fill="#e2deff"/>
      <rect id="Rectangle_85" data-name="Rectangle 85" width="20.056" height="13.906" rx="1.773" transform="translate(28.972 52.029)" fill="#e2deff"/>
      <rect id="Rectangle_86" data-name="Rectangle 86" width="20.056" height="13.906" rx="1.773" transform="translate(0 74.384)" fill="#e2deff"/>
      <rect id="Rectangle_87" data-name="Rectangle 87" width="20.056" height="13.906" rx="1.773" transform="translate(28.972 74.384)" fill="#e2deff"/>
    </g>
    <rect id="Rectangle_88" data-name="Rectangle 88" width="20.056" height="36.26" rx="1.773" transform="translate(65.056 61.775)" fill="#fca70c"/>
    <path id="Path_33" data-name="Path 33" d="M1107.275,362.055V330.639a2.422,2.422,0,0,1,2.422-2.422h15.212a2.42,2.42,0,0,1,.846.16,2.418,2.418,0,0,0-2.262-1.578H1108.28a2.422,2.422,0,0,0-2.422,2.422v31.417a2.416,2.416,0,0,0,1.576,2.262A2.407,2.407,0,0,1,1107.275,362.055Z" transform="translate(-1040.802 -265.024)" fill="#f9c110"/>
    <path id="Path_34" data-name="Path 34" d="M1058.237,303.739l2.47,6.5h10.338s-.717,28.111-.763,33.38,4.335,41.622,4.335,41.622h5.986l-.623-45.832,8.491-23.514s6.385,31.48,9.034,36.746,16.873,32.6,16.873,32.6h5.492l-14.1-60.279-6.055-20.945-30.523-14.266-10.952,1.079" transform="translate(-1058.237 -278.588)" fill="#5851bc" opacity="0.35" style="mix-blend-mode: multiply;isolation: isolate"/>
  </g>
  <g id="Group_242" data-name="Group 242" transform="translate(136.143 257.734)">
    <path id="Path_35" data-name="Path 35" d="M908.372,317.11l-4.819,49.923,47.346.01-4.579-50.018Z" transform="translate(-903.553 -317.025)" fill="#fca70c"/>
    <g id="Group_240" data-name="Group 240" transform="translate(13.073 3.109)">
      <g id="Group_238" data-name="Group 238" transform="translate(0 0.04)">
        <path id="Path_36" data-name="Path 36" d="M913.123,320.836h0a1.66,1.66,0,0,1,1.773-1.506h0a1.523,1.523,0,1,1,0,3h0A1.661,1.661,0,0,1,913.123,320.836Zm1.775-.933a.96.96,0,1,0,0,1.858h0a.96.96,0,1,0,0-1.858Zm-1.495.933h0Z" transform="translate(-913.123 -319.33)" fill="#5851bc"/>
      </g>
      <g id="Group_239" data-name="Group 239" transform="translate(17.648)">
        <path id="Path_37" data-name="Path 37" d="M926.041,320.805h0a1.374,1.374,0,0,1,.415-.971,1.909,1.909,0,0,1,1.354-.533h.008a1.655,1.655,0,0,1,1.773,1.5,1.383,1.383,0,0,1-.538,1.082,1.939,1.939,0,0,1-1.232.425h0A1.66,1.66,0,0,1,926.041,320.805Zm1.771-.932a1.341,1.341,0,0,0-.949.366.8.8,0,0,0-.249.564h0a1.1,1.1,0,0,0,1.2.926h0a1.384,1.384,0,0,0,.872-.294.83.83,0,0,0,.328-.637,1.1,1.1,0,0,0-1.2-.926Z" transform="translate(-926.041 -319.301)" fill="#5851bc"/>
      </g>
    </g>
    <g id="Group_241" data-name="Group 241" transform="translate(14.199 4.035)">
      <path id="Path_38" data-name="Path 38" d="M922.9,331.509c.165,0,.332,0,.5-.008,3.243-.108,5.716-1.153,7.35-3.1,2.7-3.231,2.093-7.735,2.066-7.925a.573.573,0,0,0-1.135.163c.005.042.564,4.2-1.814,7.033-1.415,1.686-3.6,2.59-6.5,2.687q-4.211.125-6.292-2.2c-2.529-2.813-1.906-7.437-1.9-7.484a.574.574,0,0,0-1.136-.163c-.029.21-.706,5.19,2.177,8.409A8.549,8.549,0,0,0,922.9,331.509Z" transform="translate(-913.947 -319.979)" fill="#5851bc"/>
    </g>
  </g>
  <g id="Group_250" data-name="Group 250" transform="translate(5.007 133.066)">
    <path id="Path_39" data-name="Path 39" d="M875.726,235.094c1.832,3.164.25,7.488,2.1,10.642.74,1.262,1.993,2.254,2.348,3.675a3.2,3.2,0,0,1-4.608,3.608,3.868,3.868,0,0,0-.71-.352c-.914-.268-1.742.544-2.527,1.081a3.858,3.858,0,0,1-3.328.589,4.936,4.936,0,0,1-2.77-3.327c-1.322-3.97-.382-8.317.839-12.32.611-2,1.512-4.219,3.474-4.944" transform="translate(-786.319 -222.848)" fill="#5045af"/>
    <path id="Path_40" data-name="Path 40" d="M916.412,262.969c.03.44.7.818.254,1.745-.995,2.066-4.094,4.928-7.8,3.612-.161.057-20.481,11.8-22.047,11.8s-12.229-10.092-15.717-22.578c-.832-2.979-.508-6.484,2.283-7.992a6.6,6.6,0,0,1,3.837,3.415c2.31,4.361,9.227,18.8,10.761,19.346,1.91-1.273,11.216-4.038,18.751-7.239a5.1,5.1,0,0,0,2.921-2.441,24.28,24.28,0,0,1,3.13-4.881c.4-.413,4.863-2.8,4.863-2.016,0,.454-1.309,1.656-3.015,2.738a4.09,4.09,0,0,0-1.452,2.019c-.29.574,3.2-.479,3.486.727C916.716,261.4,916.4,262.739,916.412,262.969Z" transform="translate(-784.447 -217.059)" fill="#ffb9b0"/>
    <path id="Path_41" data-name="Path 41" d="M872.754,249.29A9.152,9.152,0,0,1,878.822,254a18.975,18.975,0,0,1,.827,1.9c1.082,2.754,2.571,5.246,3.653,8a16.206,16.206,0,0,1-4.779,2.3,10.208,10.208,0,0,1-4.448.6,2.249,2.249,0,0,1-.749-.165,2.466,2.466,0,0,1-.779-.669q-.7-.8-1.353-1.626a4.458,4.458,0,0,1-.908-1.555,4.72,4.72,0,0,1,.213-2.422" transform="translate(-784.63 -217.157)" fill="#7762ef"/>
    <path id="Path_42" data-name="Path 42" d="M874.345,254.883a.942.942,0,0,0-.348-.3.632.632,0,0,0-.731.324,1.672,1.672,0,0,0-.151.848,11.525,11.525,0,0,0,.519,3.3l-.346,5.807.008.012a10.193,10.193,0,0,0,4.16-.607c.628-.234,1.306-.475,1.989-.751C878.747,260.244,876.516,257.472,874.345,254.883Z" transform="translate(-783.563 -215.23)" fill="#7762ef" opacity="0.35" style="mix-blend-mode: multiply;isolation: isolate"/>
    <path id="Path_43" data-name="Path 43" d="M871.193,245.354s-.078,3.637.479,3.874a14.29,14.29,0,0,0,2.35.727l.038,7.525-10.033-1.512-6.9-3.842s7.172-2.378,7.236-3.093-.395-4.74-.395-4.74" transform="translate(-789.416 -218.987)" fill="#ffb9b0"/>
    <g id="Group_243" data-name="Group 243" transform="translate(64.308 80.228)">
      <path id="Path_44" data-name="Path 44" d="M856.691,328.6l-.005.027c-2.745,13.015-1.437,30.894-2.049,40.69.144.04,3.73.489,3.73.489s8.489-41.3,10.03-49.2a11.229,11.229,0,0,0,.2-1.531c.37-5.951-4.993-6.254-8.016-1.335a20.755,20.755,0,0,0-1.381,2.656c-.171.388-.329.781-.495,1.2l0,.014a38.459,38.459,0,0,0-1.331,4.154l-.033.15c-.126.417-.227.839-.329,1.262l-.019.1C856.879,327.71,856.786,328.15,856.691,328.6Z" transform="translate(-854.636 -273.58)" fill="#ffb9b0"/>
      <path id="Path_45" data-name="Path 45" d="M872.155,292.812c-.1,1.076-.673,6.2-1.363,12.245-.589,5.082-1.235,10.81-1.736,15.346-.374,3.4-.646,6.116-.761,7.393a16.573,16.573,0,0,1-.3,2.2v.029c-1.292,5.943-5.4,6.288-7.895,4.91a5,5,0,0,1-.948-.646,3.19,3.19,0,0,1-1.063-1.751v-.014c-.157-1.221-.316-2.887-.459-4.867v-.029c-.014-.014-.014-.014-.014-.029l-.015-.042c-.3-3.862-.56-8.829-.79-13.667-.273-5.944-.445-11.672-.488-14.9-.015-.187-.015-.359-.029-.531-.044-9.9,9.059-16.25,14.715-13.178a1.442,1.442,0,0,1,.2.1,2.148,2.148,0,0,0,.216.13c.645.43.861,1.909.876,3.6C872.329,290.342,872.243,291.692,872.155,292.812Z" transform="translate(-854.03 -284.496)" fill="#ffb9b0"/>
      <path id="Path_46" data-name="Path 46" d="M858.363,318.636l-.693-2.594c0,.014,0,.014.005.031a41.343,41.343,0,0,1-.859,9.059l-.033.15c-.1.41-.2.846-.329,1.262l-.019.1a6.952,6.952,0,0,0-.294,1.329l-.005.027c-.008,1.178,2.5-4.046,3.071-5.268.071-.156.115-.245.115-.245l-.678-2.721Z" transform="translate(-854.087 -272.946)" fill="#ffb9b0"/>
    </g>
    <g id="Group_244" data-name="Group 244" transform="translate(80.7 79.795)">
      <path id="Path_47" data-name="Path 47" d="M872.122,331.014v.029c-.261,13.626,3.948,29.648,5.061,39.545.135,0,3.437-.441,3.437-.441s.628-41.745.672-49.993a12.508,12.508,0,0,0-.083-1.572c-.678-6.01-5.552-4.979-7.436.663a24.389,24.389,0,0,0-.794,2.985c-.088.429-.163.859-.239,1.317v.015c-.229,1.4-.395,2.9-.492,4.462l0,.158c-.044.445-.063.891-.083,1.336v.1C872.14,330.078,872.132,330.538,872.122,331.014Z" transform="translate(-864.63 -273.071)" fill="#ffb9b0"/>
      <path id="Path_48" data-name="Path 48" d="M876.959,336.564a3.545,3.545,0,0,1-.958-.418,2.73,2.73,0,0,1-1.253-1.475v-.015c-.358-1.173-.784-2.813-1.257-4.747-.011-.016-.011-.016-.01-.031l-.021-.049c-.919-3.758-2.011-8.635-3.029-13.381-1.25-5.842-2.384-11.5-2.966-14.712-.046-.173-.551-2.512-.583-2.684-1.747-9.954,6.018-16.439,11.66-14.542.081.026.15.051.22.077,1.134.455,1.45,4.445,1.7,7.142s2.172,30.646,2.65,35.7a20.214,20.214,0,0,1,.1,2.265C883.085,335.94,879.444,337.309,876.959,336.564Z" transform="translate(-866.635 -284.179)" fill="#ffb9b0"/>
      <path id="Path_49" data-name="Path 49" d="M872.707,320.039l-1.063-2.408c0,.015,0,.015.011.03a46.321,46.321,0,0,1,.764,9.223l0,.158c-.021.432-.04.892-.083,1.336v.1a8.221,8.221,0,0,0-.038,1.4v.029c.193,1.172,1.56-4.646,1.869-6,.037-.172.061-.272.061-.272l-1.072-2.538Z" transform="translate(-864.801 -271.932)" fill="#ffb9b0"/>
    </g>
    <path id="Path_50" data-name="Path 50" d="M861.533,276.891s-7.307,9.281-6.556,18.607c.312,3.883.794,7.3,1.235,11.209.064.563.94,8.764.693,8.772,0,0,15.055,4.652,29.6-1.443,0-.995,1.164-20.082-6.693-38.282A126.61,126.61,0,0,1,861.533,276.891Z" transform="translate(-790.223 -207.468)" fill="#5146af"/>
    <path id="Path_51" data-name="Path 51" d="M884.139,265.528c-.057,2.66-1.473,4.279-3.5,6.519-.257.4-.887,6.325-1.1,10.266-.112,2.05.763,3.339,0,3.507-2.921,2.548-13.445,4.611-18.275,1.134.507-4.287-1.413-13.727-2.708-18.527-.2-.739-.38-1.363-.541-1.844-1.206-3.646-3.384-15.339-1.773-15.848.321-.1.821-.234,1.4-.407,2.523-.762,6.251-2.068,6.251-2.068s2.187,6.47,7.873,7.251c3.1-1.279,2.831-5.2,2.792-7.008,1.015.28,1.463.559,4.609,1.49.881,1.272.12,3.925,1.545,7.881C881.064,258.857,884.209,262.29,884.139,265.528Z" transform="translate(-789.95 -217.535)" fill="#7762ef"/>
    <path id="Path_52" data-name="Path 52" d="M877.578,234.556s.575,7.029-.624,10.713c-.888,2.728-4.536,5.275-7.583,5.24-8.393,0-9.9-11.4-9.855-11.952s12.38-5.336,12.38-5.336Z" transform="translate(-788.542 -223.04)" fill="#ffb9b0"/>
    <path id="Path_53" data-name="Path 53" d="M873.382,284.95" transform="translate(-783.464 -204.101)" fill="#f2f2f2"/>
    <g id="Group_245" data-name="Group 245" transform="translate(91.942 176.36)">
      <path id="Path_54" data-name="Path 54" d="M887.939,359.76c-2.986.538-6.179-.3-7.488-.075-1.082.184-3.861.889-4.9-.045s-.873-4.234.322-4.673a4.437,4.437,0,0,0,.776.187,8.162,8.162,0,0,0,3.536-.29c2.274.936,2.358,1.344,4.943,1.866a16.791,16.791,0,0,1,3.292,1C889.535,358.238,889.624,359.46,887.939,359.76Z" transform="translate(-874.864 -354.864)" fill="#5045af"/>
    </g>
    <g id="Group_246" data-name="Group 246" transform="translate(62.45 174.057)">
      <path id="Path_55" data-name="Path 55" d="M863.594,361.692c-2.993-.5-4.888-2.159-6.2-2.387-1.081-.193-3.8-.723-4.089-1.839-.212-.829.611-4.279,1.884-4.288a4.36,4.36,0,0,0,.667.439,8.182,8.182,0,0,0,3.426.922c1.824,1.649,1.765,2.061,4.021,3.425a16.848,16.848,0,0,1,2.761,2.053C866.944,360.873,865.282,361.977,863.594,361.692Z" transform="translate(-853.276 -353.178)" fill="#5045af"/>
    </g>
    <g id="Group_247" data-name="Group 247" transform="translate(29.146 32.239)">
      <path id="Path_56" data-name="Path 56" d="M828.9,259.949l2.75-3.271,16.771,15s8.189-10.9,10.44-14.3c2.477-3.742,4.709-6.943,8.331-7.568.833.515-.282,13.955-.717,14.28-5.06,3.786-14.906,16-18.037,16.631C844.818,281.448,828.9,259.949,828.9,259.949Z" transform="translate(-828.897 -249.208)" fill="#ffb9b0"/>
      <path id="Path_57" data-name="Path 57" d="M861.428,249.368s-3.426.044-4.9,1.257S848.017,263,848.017,263a4.957,4.957,0,0,0,1.851,3.874,10.269,10.269,0,0,0,5.07,2.2s3.533-3.516,5.525-5.116c1.24-1,1.363,1.47,1.363,1.47l6.23-6.082Z" transform="translate(-821.898 -249.368)" fill="#7762ef"/>
    </g>
    <path id="Path_58" data-name="Path 58" d="M857.217,257.569c-.187-.1-.37-.208-.548-.314a4.625,4.625,0,0,1-2.251-2.271c-.583-1.575-.862-3.992-.047-5.519a21.853,21.853,0,0,1,2.3-2.642,8.146,8.146,0,0,0,1.357-4.589,30.282,30.282,0,0,1,.328-4.843c.581-2.708,1.353-5.287,3.44-7.031,3.343-2.8,10.044-4.451,13.688-1.335.663.567.792,1.022,1.687,1.109a6.582,6.582,0,0,1,3.059.893c1.2.691,2.645,1.665,2.477,3.235a5.621,5.621,0,0,1-2.279,3.318,2.764,2.764,0,0,1-1.288.288c-1.421.027-2.6-.9-3.995-.747a2.655,2.655,0,0,0-1.749.971c-.5.619-.434,1.484-1.022,2.064-.94.93-2.4.851-3.514,1.456a1.169,1.169,0,0,0-.481.4,1.263,1.263,0,0,0-.121.6l-.064,1.761c-.553-.243-.611-1.03-1.067-1.426a1.266,1.266,0,0,0-1.6.1,2.68,2.68,0,0,0-.77,1.533,4.4,4.4,0,0,0,.31,2.1c.365,1.2,1.391,2.275,2.219,1.484.6.884-.056,2.359-.078,3.358-.018.792,0,2.363.738,2.884.682.48,1.761.116,1.8,1.35a2.372,2.372,0,0,1-2.212,2.149,8.3,8.3,0,0,1-3.313-.578,5.185,5.185,0,0,0-3.321-.163,10.047,10.047,0,0,1-1.865.839A2.921,2.921,0,0,1,857.217,257.569Z" transform="translate(-790.611 -225.193)" fill="#5045af"/>
    <path id="Path_59" data-name="Path 59" d="M837.428,260.3s-3.941-3.16-4.21-4.025-.327-1.791-.652-2.637a4.936,4.936,0,0,0-2.735-2.721c-.988-.407-.5-.742-1.563-.537-1.6.309-2.355,1.874-2.993,3.1-2.723,5.217,4.732,6.2,5,6.216.544.022,3.317,3.167,3.317,3.167" transform="translate(-801.296 -216.781)" fill="#ffb9b0"/>
    <g id="Group_249" data-name="Group 249" transform="translate(9.561 7.447)">
      <path id="Path_60" data-name="Path 60" d="M824.987,258.557l2.7,1.8a.743.743,0,0,0,1.051-.236l5.93-9.937-3.516-1.981-6.365,9.316A.744.744,0,0,0,824.987,258.557Z" transform="translate(-810.865 -225.002)" fill="#8484ef"/>
      <g id="Group_248" data-name="Group 248">
        <path id="Path_61" data-name="Path 61" d="M818.15,241.934l.929.633,3.757-5.475-.929-.633a3.141,3.141,0,0,0-4.272,1.107h0A3.119,3.119,0,0,0,818.15,241.934Z" transform="translate(-813.673 -229.466)" fill="#c4c4f7"/>
        <path id="Path_62" data-name="Path 62" d="M815.323,250.116l17.281,2.624,3.948-5.752-8.721-15.1Z" transform="translate(-814.282 -230.975)" fill="#c4c4f7"/>
        <path id="Path_63" data-name="Path 63" d="M816.132,247.021l16.177,2.384,1.573-2.293-13.615-6.118Z" transform="translate(-813.986 -227.641)" fill="#bbbbf2"/>
        <path id="Path_64" data-name="Path 64" d="M833.395,251.6h0a2.2,2.2,0,0,0,2.986-.773l.7-1.023a2.181,2.181,0,0,0-.359-3.055h0a2.2,2.2,0,0,0-2.988.773l-.7,1.023A2.179,2.179,0,0,0,833.395,251.6Z" transform="translate(-807.964 -225.65)" fill="#c4c4f7"/>
        <path id="Path_65" data-name="Path 65" d="M833.736,247.288l-.7,1.02a2.045,2.045,0,1,0,3.348,2.281l.7-1.02a2.288,2.288,0,0,0,.143-.24,2.008,2.008,0,1,1-3.318-2.261A2.12,2.12,0,0,0,833.736,247.288Z" transform="translate(-807.964 -225.417)" fill="#bbbbf2"/>
        <path id="Path_66" data-name="Path 66" d="M815.039,250.928h0a1.29,1.29,0,0,0,1.754-.454L828.649,233.2a1.281,1.281,0,0,0-.212-1.794h0a1.29,1.29,0,0,0-1.754.455l-11.855,17.275A1.28,1.28,0,0,0,815.039,250.928Z" transform="translate(-814.561 -231.22)" fill="#a4a4f7"/>
        <path id="Path_67" data-name="Path 67" d="M828.74,231.6l-9.873,14.387a1.29,1.29,0,0,1-1.754.454,1.054,1.054,0,0,1-.3-.328L814.827,249a1.2,1.2,0,1,0,1.966,1.339l11.855-17.275A1.363,1.363,0,0,0,828.74,231.6Z" transform="translate(-814.561 -231.082)" fill="#8484ef"/>
        <path id="Path_68" data-name="Path 68" d="M829.481,251.782l1.119.762a3.921,3.921,0,0,0,5.333-1.381l1.112-1.619a3.894,3.894,0,0,0-.643-5.455l-1.119-.762a3.921,3.921,0,0,0-5.333,1.381l-1.112,1.619A3.894,3.894,0,0,0,829.481,251.782Z" transform="translate(-809.631 -226.993)" fill="#a4a4f7"/>
        <path id="Path_69" data-name="Path 69" d="M829.18,245.307l-1.664,2.425a1.231,1.231,0,0,0,.2,1.727l5.2,3.546a1.242,1.242,0,0,0,1.688-.437l1.664-2.425a1.242,1.242,0,0,1-1.688.437l-5.2-3.546A1.231,1.231,0,0,1,829.18,245.307Z" transform="translate(-809.912 -226.062)" fill="#8484ef"/>
      </g>
    </g>
    <path id="Path_70" data-name="Path 70" d="M825.338,255.437a5.437,5.437,0,0,1,.949-4.061,8.852,8.852,0,0,1,.967-1.044,1.351,1.351,0,0,1,.585-.385,1.839,1.839,0,0,1,1.264.286,2.313,2.313,0,0,1,1.036,1.029,1.372,1.372,0,0,1-.76,1.65.288.288,0,0,0-.139.137c-.031.1.034.216.1.322a2.345,2.345,0,0,1,.4,1.348.79.79,0,0,1-.927.694c-.2-.033-.475-.112-.544.044a.351.351,0,0,0,0,.176,1.444,1.444,0,0,1-.314,1.138.4.4,0,0,1-.25.157.661.661,0,0,1-.262-.035,3.563,3.563,0,0,1-.924-.41" transform="translate(-801.077 -216.928)" fill="#ffb9b0"/>
    <path id="Path_71" data-name="Path 71" d="M831.79,256.5a20.7,20.7,0,0,1-.322-2.12,4.822,4.822,0,0,0-2.28-3.965.577.577,0,0,0-.37-.107.411.411,0,0,0-.3.355,1.1,1.1,0,0,0,.074.489c.16.5.871,1.443.652,1.959a5.864,5.864,0,0,0-.563,2.458c.025.75.374,1.967,1.262,2.09" transform="translate(-799.894 -216.787)" fill="#ffb9b0"/>
    <line id="Line_5" data-name="Line 5" x2="3.477" y2="8.198" transform="translate(11.856)" fill="none" stroke="#c4c4f7" stroke-linecap="round" stroke-linejoin="round" stroke-width="0.75"/>
    <line id="Line_6" data-name="Line 6" x2="7.126" y2="5.34" transform="translate(4.596 7.291)" fill="none" stroke="#c4c4f7" stroke-linecap="round" stroke-linejoin="round" stroke-width="0.75"/>
    <line id="Line_7" data-name="Line 7" x2="8.862" y2="0.87" transform="translate(0 17.221)" fill="none" stroke="#c4c4f7" stroke-linecap="round" stroke-linejoin="round" stroke-width="0.75"/>
  </g>
  <g id="Group_259" data-name="Group 259" transform="translate(272.502 30.372)">
    <g id="Group_258" data-name="Group 258" transform="translate(0 3.707)">
      <path id="Path_72" data-name="Path 72" d="M1019.787,178.15s-3.183-2.246-3.3-3.189a21.808,21.808,0,0,0-3.042-5.526c-.709-.761-4.441-2.053-5.236-2.168s-5.363.275-4.8.9,3.525.4,4.093.738l.568.34s-.568.771-.342,1.238-.975,1.186-.521,1.981-.184.74.223,1.571c.672,1.372,2.392,2.135,2.847,1.761.342.811,1.646,2.467,2.869,2.354s4.194,2.671,4.194,2.671" transform="translate(-1003.368 -148.207)" fill="#ffb9b0"/>
      <path id="Path_73" data-name="Path 73" d="M1054.108,163.532c.108,2.138-.044,5.861.568,6.413s2.588.466,2.588.466-7.063,8.93-7.694,8.44-8.985-7.3-7.108-7.65,3.715-.276,3.661-1.247-.106-1.944-.16-2.915" transform="translate(-989.156 -149.568)" fill="#ffb9b0"/>
      <path id="Path_74" data-name="Path 74" d="M1063.558,209.447s-13.78,1.564-16.952,1.63-3.015-1.592-3.015-1.592c-.161-3.492-.753-11.72-1.41-14.508-.612-2.6-.884-3.566-1.418-6.04-1.184-5.5-1.133-6.549-2.388-13.336l8.231-6.616a4.34,4.34,0,0,0,4.3,2.575c4.612.059,6.046-3.172,6.046-3.172l11.227,7.455,1.053,18.131-1.343,14.932" transform="translate(-990.552 -147.79)" fill="#fca70c"/>
      <path id="Path_75" data-name="Path 75" d="M1054.872,165.337a23.983,23.983,0,0,1-.971,3.168,3.592,3.592,0,0,1-3.8,2.619l-4.22.1a4.818,4.818,0,0,1-3.3-.7c-.865-.751-.884-2.016-1.075-3.056q-.369-2-.6-4.015a59.068,59.068,0,0,1-.372-7.939,5.66,5.66,0,0,1,.094-1.086.776.776,0,0,1,.18-.4.883.883,0,0,1,.507-.2,43.3,43.3,0,0,1,7.977-.511,9.058,9.058,0,0,1,5.37,1.426c1.5,1.16,2.213,3.045,2.855,4.831.1.287.179.669-.07.844" transform="translate(-989.764 -153.31)" fill="#ffb9b0"/>
      <g id="Group_254" data-name="Group 254" transform="translate(21.06 60.417)">
        <g id="Group_251" data-name="Group 251" transform="translate(6.12 48.478)">
          <path id="Path_76" data-name="Path 76" d="M1028.4,234.938a30.033,30.033,0,0,0,.822,3.678c.364.937,3.439.074,3.642-.531s-.967-5.063-.967-5.063" transform="translate(-1021.382 -233.021)" fill="#ed9c80"/>
          <path id="Path_77" data-name="Path 77" d="M1035.818,237.586c.266,1.011.6,2.951.6,2.951l-3.074,1.337-.5-.473a5.7,5.7,0,0,1-1.7,1.359,12.77,12.77,0,0,1-2.974.825c-2.683.288-4.657-.216-4.817-.587-.665-1.555,2.895-1.971,3.6-2.157a4.717,4.717,0,0,0,3.372-3.378c.157-.814-.045-.958.41-.933a1.085,1.085,0,0,1,.769.361,1.939,1.939,0,0,0,2.183.508,2.323,2.323,0,0,0,1.089-.907A1.339,1.339,0,0,1,1035.818,237.586Z" transform="translate(-1023.264 -231.75)" fill="#38287c"/>
        </g>
        <g id="Group_252" data-name="Group 252">
          <path id="Path_78" data-name="Path 78" d="M1045.506,212.049a52.076,52.076,0,0,1-15.689.372c.679,1.947,2.343,4.44,2.977,7.179,2.093,9.049,2.82,21.2,3.351,28.724,0,0-1.005,1.93-4.225.46-4.812-11.884-13.213-35.969-13.135-41.194.1-6.652,16.7-8.258,28.87-9.9" transform="translate(-1018.784 -197.478)" fill="#453087"/>
          <path id="Path_79" data-name="Path 79" d="M1066.226,198.788c3.826,2.794-21.209,13.318-21.209,13.318a41.7,41.7,0,0,1-8.205.783,5.987,5.987,0,0,1-.611-1.552c-.148-.727-.068-1.484-.2-2.214a5.148,5.148,0,0,0-2.5-3.37,11.257,11.257,0,0,0-4.092-1.325,54.862,54.862,0,0,0-9.3-.164c7.523-5.546,22.92-6.272,30.09-6.728C1051.581,199.8,1065.677,198.387,1066.226,198.788Z" transform="translate(-1018.295 -197.535)" fill="#38287c"/>
        </g>
        <g id="Group_253" data-name="Group 253" transform="translate(12.597 55.439)">
          <path id="Path_80" data-name="Path 80" d="M1034.211,239.4a30.056,30.056,0,0,0,.172,3.765c.2.985,3.374.668,3.679.107s-.075-5.153-.075-5.153" transform="translate(-1025.733 -238.116)" fill="#ed9c80"/>
          <path id="Path_81" data-name="Path 81" d="M1041.254,243.1c.087,1.042.082,3.01.082,3.01l-3.258.786-.416-.555a5.674,5.674,0,0,1-1.915,1.044,12.758,12.758,0,0,1-3.072.3c-2.691-.18-4.548-1.019-4.641-1.413-.387-1.646,3.191-1.44,3.92-1.5a4.717,4.717,0,0,0,3.906-2.743c.3-.775.122-.951.567-.847a1.084,1.084,0,0,1,.694.489,1.937,1.937,0,0,0,2.061.877,2.32,2.32,0,0,0,1.231-.7A1.34,1.34,0,0,1,1041.254,243.1Z" transform="translate(-1028.005 -237.003)" fill="#38287c"/>
        </g>
        <path id="Path_82" data-name="Path 82" d="M1070.141,198.047a155.486,155.486,0,0,1-16.96.541c-2.168,0-18.55,3.074-20.118,5.85-2.578,4.567,1.682,31.257,1.287,50.365,0,0,1.964,1.639,5.438.1.864-9.387,6.409-31.53,2.584-41.868,9.033,1.2,16.32,2.389,24.53-.332a6.549,6.549,0,0,0,4.223-4.48C1071.993,205.729,1071.54,200.277,1070.141,198.047Z" transform="translate(-1013.861 -197.348)" fill="#453087"/>
      </g>
      <g id="Group_255" data-name="Group 255" transform="translate(10.537 21.195)">
        <path id="Path_83" data-name="Path 83" d="M1056.6,168.825s-1.969.108-2.353.139a18.09,18.09,0,0,0-4.866.921c-2.232.827-3.807,2.9-5.624,4.526-1.75,1.564-10.818,10.2-12.509,10.523s-16.54-9.857-16.54-9.857l-3.626,3.626s16.112,14.887,20.917,14.913c2.331.012,15.193-6.758,19.309-9.389Z" transform="translate(-1011.081 -168.825)" fill="#fca70c"/>
        <path id="Path_84" data-name="Path 84" d="M1032.035,188.3c-3.312.187-18.489-11.4-20.25-12.757l-.7.7s16.112,14.887,20.917,14.913c1.944.01,11.194-4.689,16.605-7.779l1.4-.813-.84-5.005S1035.551,188.1,1032.035,188.3Z" transform="translate(-1011.081 -166.366)" fill="#ce4a30" opacity="0.25" style="mix-blend-mode: multiply;isolation: isolate"/>
      </g>
      <g id="Group_256" data-name="Group 256" transform="translate(8.432 40.534)">
        <path id="Path_85" data-name="Path 85" d="M1016.867,206.541h36.88l-6.613-21.557a2.832,2.832,0,0,0-2.709-2h-32.3a1.839,1.839,0,0,0-1.758,2.377Z" transform="translate(-1009.268 -182.981)" fill="#a4a4f7"/>
        <path id="Path_86" data-name="Path 86" d="M1016.676,206.541H1053l-6.612-21.557a2.834,2.834,0,0,0-2.71-2h-32.3a1.838,1.838,0,0,0-1.757,2.377l6.335,20.653A.751.751,0,0,0,1016.676,206.541Z" transform="translate(-1009.541 -182.981)" fill="#7a74d1"/>
      </g>
      <path id="Path_87" data-name="Path 87" d="M1062.591,179.376c-1.836,8.3-2.16,14.794-2.679,20.728-6.444,2.5-9.068,6.224-15.374,9.031,0,0-4.979-.826-5.5,1.052-.3,1.083,5.831,1.945,5.831,1.945,5.844.027,21.255-4.243,22.3-4.53s4.079-19.878,4.2-30.511c.017-1.51-.037-3.149-.981-4.327a5.667,5.667,0,0,0-1.9-1.407,26.532,26.532,0,0,0-11.768-2.97" transform="translate(-990.314 -147.79)" fill="#ce4a30" opacity="0.25" style="mix-blend-mode: multiply;isolation: isolate"/>
      <path id="Path_88" data-name="Path 88" d="M1046.465,199.417a3.687,3.687,0,0,0-3.068-.971,22.519,22.519,0,0,0-2.464.2c-.371.051-.8.138-.84.541s1.807,0,2.775.279a48.739,48.739,0,0,1-5.7.156,1.636,1.636,0,0,0-.657.067.546.546,0,0,0-.369.5.686.686,0,0,0,.261.434,3.872,3.872,0,0,0,1.962.79,15.119,15.119,0,0,0,8.668-.765" transform="translate(-991.371 -136.786)" fill="#ffb9b0"/>
      <path id="Path_89" data-name="Path 89" d="M1060.713,179.22c-.152,8.872-.781,12.932-.609,21.8-4.453.952-10.619,5.995-16.925,8.8a3.33,3.33,0,0,0,.209,2.307c.481.176,21.27-4.885,22.923-6.408,1.488-1.372,3.455-18,3.578-28.633.017-1.51-.037-3.149-.981-4.327a5.666,5.666,0,0,0-1.9-1.407,26.532,26.532,0,0,0-11.768-2.97" transform="translate(-988.836 -147.79)" fill="#fca70c"/>
      <g id="Group_257" data-name="Group 257" transform="translate(23.851 49.262)">
        <path id="Path_90" data-name="Path 90" d="M1031.292,192.792c.131,1.891-2.1,3.424-4.991,3.424s-5.336-1.533-5.468-3.424,2.1-3.422,4.99-3.422S1031.159,190.9,1031.292,192.792Z" transform="translate(-1020.827 -189.37)" fill="none" stroke="#a4a4f7" stroke-miterlimit="10" stroke-width="1" opacity="0.45"/>
        <ellipse id="Ellipse_4" data-name="Ellipse 4" cx="1.903" cy="3.325" rx="1.903" ry="3.325" transform="matrix(0.039, -0.999, 0.999, 0.039, 1.838, 5.194)" fill="#a4a4f7"/>
      </g>
    </g>
    <path id="Path_91" data-name="Path 91" d="M1048.881,158.054c-.07-.332-.806-.4-1.546-.3a11.806,11.806,0,0,0-3.117.657c-.4.316-.381.542-.6.567s-.228-.2-.7-.4a6.238,6.238,0,0,0-2.35.031c-.739.093-1.442.257-1.427.6a1.911,1.911,0,0,0,.295,1.022c.152.094.152.078.734,1.415a1.412,1.412,0,0,0,1.781.967c1.216-.265,1.293-1.652,1.388-2.231s.182-.665.366-.689.312.036.547.574.4,1.779,1.652,1.848c1.633.092,2.34-.467,2.566-1.515.307-1.418.236-1.424.359-1.552a7.737,7.737,0,0,1,1.221.1l-.027-.425A9.216,9.216,0,0,1,1048.881,158.054Zm-5.929,2.857a1.421,1.421,0,0,1-1.2,1.489c-.749.094-1.092-.3-1.5-1.262a2.482,2.482,0,0,1-.242-1.73c.127-.229.53-.221,1.461-.28s1.24-.079,1.391.331A5.033,5.033,0,0,1,1042.953,160.911Zm5.322-.783c-.154,1.029-.533,1.523-1.557,1.646-1.453.175-1.734-.4-1.95-1.092a5.078,5.078,0,0,1-.27-1.43c.045-.433.35-.492,1.265-.665s2.138-.385,2.318-.194A2.474,2.474,0,0,1,1048.275,160.128Z" transform="translate(-990.27 -147.992)" fill="#483a99"/>
    <path id="Path_92" data-name="Path 92" d="M1059.012,158.392a15.99,15.99,0,0,0-.406-2.187,6.975,6.975,0,0,0-3.407-4.466,10.9,10.9,0,0,0-7.709-.768c-1.411.395-1.934,1.138-2.661,1.117a8.05,8.05,0,0,1-1.974-.65c-5.515-1.982-4.59,3.417-4,4.9.261.656,1.511,1.133,1.678,1.406a16.782,16.782,0,0,1,.254,2.2,1.164,1.164,0,0,0,.686.811s.031-1.738.059-1.974a2.189,2.189,0,0,1,.816-1.627,5.061,5.061,0,0,1,1.982-.557,15.052,15.052,0,0,1,4.06.672c1.03.884,1.3,2.9,1.585,4.085.134.555.275.926.5.918.171-1.633.738-1.674,1.713-1.116a2.84,2.84,0,0,1,.832,2.208,2.33,2.33,0,0,1-1.646,2.41c-.39.083.785,2.31,1.329,2.866a2.971,2.971,0,0,0,.575.505,2.638,2.638,0,0,0,.664.246l.788.214a2.062,2.062,0,0,0,1.083.093c.582-.165.888-.781,1.152-1.327.43-.893.926-1.76,1.278-2.689A15.965,15.965,0,0,0,1059.012,158.392Z" transform="translate(-990.542 -150.597)" fill="#483a99"/>
  </g>
  <g id="Group_265" data-name="Group 265" transform="translate(370.543 78.964)">
    <path id="Path_93" data-name="Path 93" d="M1144.94,227.1h-69.806l8.359-6.184V190.728a4.562,4.562,0,0,1,4.561-4.561h56.885a4.562,4.562,0,0,1,4.561,4.561v31.816A4.562,4.562,0,0,1,1144.94,227.1Z" transform="translate(-1075.134 -186.166)" fill="#d5d2ff"/>
    <g id="Group_264" data-name="Group 264" transform="translate(13.855 5.888)">
      <rect id="Rectangle_89" data-name="Rectangle 89" width="31.902" height="3.053" transform="translate(22.546)" fill="#fff" opacity="0.45"/>
      <rect id="Rectangle_90" data-name="Rectangle 90" width="31.902" height="3.053" transform="translate(22.546 4.56)" fill="#fff" opacity="0.45"/>
      <rect id="Rectangle_91" data-name="Rectangle 91" width="31.902" height="3.053" transform="translate(22.546 9.12)" fill="#fff" opacity="0.45"/>
      <rect id="Rectangle_92" data-name="Rectangle 92" width="31.902" height="3.052" transform="translate(22.546 13.564)" fill="#fff" opacity="0.45"/>
      <rect id="Rectangle_93" data-name="Rectangle 93" width="22.248" height="3.053" transform="translate(22.546 18.879)" fill="#fff" opacity="0.45"/>
      <g id="Group_263" data-name="Group 263">
        <rect id="Rectangle_94" data-name="Rectangle 94" width="20.039" height="23.432" rx="3.385" fill="#a9adff"/>
        <rect id="Rectangle_95" data-name="Rectangle 95" width="20.039" height="2.515" transform="translate(0 26.35)" fill="#fff" opacity="0.45"/>
        <g id="Group_262" data-name="Group 262" transform="translate(2.418 5.247)">
          <path id="Path_94" data-name="Path 94" d="M1096.624,203.478h-7.272a.906.906,0,0,1-.876-.671l-1.4-5.165a.907.907,0,0,1,.876-1.143h10.07a.906.906,0,0,1,.875,1.143l-1.4,5.165A.906.906,0,0,1,1096.624,203.478Z" transform="translate(-1087.046 -193.518)" fill="#fff"/>
          <g id="Group_260" data-name="Group 260" transform="translate(1.92)">
            <path id="Path_95" data-name="Path 95" d="M1097.391,205.439h-8.758a.181.181,0,1,1,0-.362h8.622l3.048-10.628a.18.18,0,0,1,.174-.131h1.906a.181.181,0,0,1,0,.362h-1.769l-3.048,10.628A.18.18,0,0,1,1097.391,205.439Z" transform="translate(-1088.451 -194.317)" fill="#fff"/>
          </g>
          <g id="Group_261" data-name="Group 261" transform="translate(1.324 11.486)">
            <path id="Path_96" data-name="Path 96" d="M1090.133,203.784a1.059,1.059,0,1,1-1.059-1.059A1.06,1.06,0,0,1,1090.133,203.784Z" transform="translate(-1088.015 -202.725)" fill="#fff"/>
            <circle id="Ellipse_5" data-name="Ellipse 5" cx="1.059" cy="1.059" r="1.059" transform="translate(7.701)" fill="#fff"/>
          </g>
        </g>
      </g>
    </g>
  </g>
  <g id="Group_272" data-name="Group 272" transform="translate(175.215 15.387)">
    <path id="Path_97" data-name="Path 97" d="M937.966,201.978H1026.9l-10.652-7.88v-48.66a5.81,5.81,0,0,0-5.811-5.81H937.966a5.81,5.81,0,0,0-5.812,5.81v50.728A5.811,5.811,0,0,0,937.966,201.978Z" transform="translate(-932.154 -139.628)" fill="#d5d2ff"/>
    <g id="Group_271" data-name="Group 271" transform="translate(7.727 9.022)">
      <g id="Group_266" data-name="Group 266" transform="translate(0 0)" opacity="0.45">
        <rect id="Rectangle_96" data-name="Rectangle 96" width="40.645" height="3.889" transform="translate(40.645 3.889) rotate(180)" fill="#fff"/>
        <rect id="Rectangle_97" data-name="Rectangle 97" width="40.645" height="3.889" transform="translate(40.645 9.699) rotate(180)" fill="#fff"/>
        <rect id="Rectangle_98" data-name="Rectangle 98" width="40.645" height="3.889" transform="translate(40.645 15.509) rotate(180)" fill="#fff"/>
        <rect id="Rectangle_99" data-name="Rectangle 99" width="40.645" height="3.889" transform="translate(40.645 21.17) rotate(180)" fill="#fff"/>
        <rect id="Rectangle_100" data-name="Rectangle 100" width="40.645" height="3.889" transform="translate(40.645 26.831) rotate(180)" fill="#fff"/>
        <rect id="Rectangle_101" data-name="Rectangle 101" width="40.645" height="3.889" transform="translate(40.645 37.118) rotate(180)" fill="#fff"/>
        <rect id="Rectangle_102" data-name="Rectangle 102" width="69.37" height="3.889" transform="translate(69.37 43.244) rotate(180)" fill="#fff"/>
      </g>
      <g id="Group_270" data-name="Group 270" transform="translate(43.838 0)">
        <rect id="Rectangle_103" data-name="Rectangle 103" width="25.532" height="29.854" rx="4.313" transform="translate(25.532 29.854) rotate(180)" fill="#c4c4f7"/>
        <rect id="Rectangle_104" data-name="Rectangle 104" width="25.532" height="3.205" transform="translate(25.532 36.776) rotate(180)" fill="#fff" opacity="0.45"/>
        <g id="Group_269" data-name="Group 269" transform="translate(2.026 6.684)">
          <path id="Path_98" data-name="Path 98" d="M978.189,162.8h9.265a1.156,1.156,0,0,0,1.116-.854l1.781-6.581a1.155,1.155,0,0,0-1.115-1.458H976.406a1.156,1.156,0,0,0-1.116,1.458l1.783,6.581A1.155,1.155,0,0,0,978.189,162.8Z" transform="translate(-969.968 -150.108)" fill="#fff"/>
          <g id="Group_267" data-name="Group 267">
            <path id="Path_99" data-name="Path 99" d="M977.972,165.294H989.13a.23.23,0,1,0,0-.46H978.146l-3.883-13.541a.231.231,0,0,0-.221-.168h-2.427a.231.231,0,0,0,0,.462h2.254l3.882,13.541A.229.229,0,0,0,977.972,165.294Z" transform="translate(-971.383 -151.125)" fill="#fff"/>
          </g>
          <g id="Group_268" data-name="Group 268" transform="translate(6.228 14.635)">
            <path id="Path_100" data-name="Path 100" d="M983.124,163.188a1.349,1.349,0,1,0,1.348-1.35A1.349,1.349,0,0,0,983.124,163.188Z" transform="translate(-973.313 -161.838)" fill="#fff"/>
            <path id="Path_101" data-name="Path 101" d="M975.942,163.188a1.349,1.349,0,1,0,1.348-1.35A1.349,1.349,0,0,0,975.942,163.188Z" transform="translate(-975.942 -161.838)" fill="#fff"/>
          </g>
        </g>
      </g>
    </g>
  </g>
  <g id="Group_279" data-name="Group 279" transform="translate(335.823 136.295)">
    <ellipse id="Ellipse_6" data-name="Ellipse 6" cx="39.194" cy="4.132" rx="39.194" ry="4.132" transform="translate(11.711 189.316)" fill="#eae6ff"/>
    <path id="Path_102" data-name="Path 102" d="M1074.019,365.745a9.851,9.851,0,0,1-4.09,3.1c-2.183.975-6.81,1.433-4.24,2.292s5.568.339,7.088.1a30.611,30.611,0,0,1,4.78-.29c2.362-.015,2.38-.161,2.063-2.824C1079.181,364.452,1075.082,363.674,1074.019,365.745Z" transform="translate(-1044.149 -178.162)" fill="#9aa3f4"/>
    <path id="Path_103" data-name="Path 103" d="M1104.3,364.953c-.131.739.917,2.979-.96,4.624s-6.141,3.376-3.314,3.44a16.456,16.456,0,0,0,6.977-1.3c1.436-.71.289-1.828,2.071-2.389,2.35-.742,1.865-2.469.645-3.537C1108.158,362.273,1104.728,362.561,1104.3,364.953Z" transform="translate(-1031.644 -178.699)" fill="#9aa3f4"/>
    <path id="Path_104" data-name="Path 104" d="M1105.526,317.948s5.629-16.548-10.34-30.179c0,0-8.557,3.407-15.411,3.818a38.051,38.051,0,0,1-8.137-.173s-.454,14.7-.473,22.624Z" transform="translate(-1041.867 -206.298)" fill="#4a41a3"/>
    <path id="Path_105" data-name="Path 105" d="M1070.221,331.4c-.309-7.4,7.713-6.429,10.671-.9,6.118,11.429-2.255,37.751-3.363,50.224a6.348,6.348,0,0,1-4.234.264,2.958,2.958,0,0,1-1.231-1.361C1072.241,364.324,1070.551,339.31,1070.221,331.4Z" transform="translate(-1042.216 -192.263)" fill="#4a41a3"/>
    <path id="Path_106" data-name="Path 106" d="M1080.608,343.255c-.922,3.021-11.163,6.2-10.333-4.8.369-4.877,1.35-31.809,1.538-34.4s.623-6.391,1.878-6.865c6.275-2.368,17.373,5.836,15.721,15.585C1088.312,319.289,1082.522,336.99,1080.608,343.255Z" transform="translate(-1042.21 -203)" fill="#4a41a3"/>
    <path id="Path_107" data-name="Path 107" d="M1089.748,335.59c-2.475-6.978,5.568-8.213,10.13-3.914,10.683,10.068,11.1,33.792,13.716,46.038a9.37,9.37,0,0,1-4.671,1.337,1.67,1.67,0,0,1-1.273-.652C1103.309,363.728,1092.395,343.052,1089.748,335.59Z" transform="translate(-1035.234 -191.135)" fill="#4a41a3"/>
    <path id="Path_108" data-name="Path 108" d="M1102.924,344.505c.28,3.146-8.257,9.649-11.616-.854-1.492-4.658-7.87-32.187-8.671-34.663s-.579-7.592.406-8.5c4.926-4.552,16.045-.549,18.176,9.105C1102.646,316.046,1102.345,337.981,1102.924,344.505Z" transform="translate(-1037.845 -202.328)" fill="#4a41a3"/>
    <g id="Group_278" data-name="Group 278">
      <path id="Path_109" data-name="Path 109" d="M1065.176,247.736c.291-.307.582-.615.842-.948,2.023-2.587,2.318-4.881,4.192-7.884a23.424,23.424,0,0,1,1.362-2.607,10.954,10.954,0,0,1,3.041-2.495c.877-.458.123,1.473.123,1.473s.744-1.078,1.463-1c.28.03.329,1.676.333,1.958a13.823,13.823,0,0,1-1.536,6.536,3.371,3.371,0,0,0-.523,1.485,3.319,3.319,0,0,0,1.765-.869,2.132,2.132,0,0,1,1.847-.538,5.039,5.039,0,0,1-.355.77c-.8,1.5-1.7,3.1-3.232,3.828-.918.434-1.979.512-2.876.989-1.619.861-2.406,2.852-4.049,3.665" transform="translate(-1044.06 -226.082)" fill="#f2a181"/>
      <rect id="Rectangle_105" data-name="Rectangle 105" width="6.993" height="12.875" rx="0.646" transform="matrix(0.923, 0.386, -0.386, 0.923, 30.057, 7.999)" fill="#5e5dbb"/>
      <rect id="Rectangle_106" data-name="Rectangle 106" width="5.863" height="11.493" transform="translate(30.487 8.928) rotate(22.698)" fill="#b4b4db"/>
      <path id="Path_110" data-name="Path 110" d="M1085.614,254.715a38.282,38.282,0,0,0-7.814,1.321c-5.56,1.669-7.473,4.245-9.4,5.309,3.732-4.742,7.892-14.794,7.892-14.794s-5.016-4.12-5.593-3.145-21.63,25.611-20.97,29.6c.272,1.645,2.709,3.271,4.864,3.2,5.97-.2,12.9-2.377,20.169-4.755,3.2-1.045,4.181,1.208,4.181,1.208" transform="translate(-1049.719 -222.595)" fill="#7a74d1"/>
      <path id="Path_111" data-name="Path 111" d="M1064.359,257.181s-2.65,5.344-3.447,5.693,1.933-1.113,3.426-2.656a31.638,31.638,0,0,0,3.537-5.59A30.738,30.738,0,0,0,1064.359,257.181Z" transform="translate(-1045.673 -218.431)" fill="#6960c4"/>
      <path id="Path_112" data-name="Path 112" d="M1070.378,237.542a1.2,1.2,0,0,1,.374.842,6.614,6.614,0,0,1-.1,3.544,5.091,5.091,0,0,1-1.425,1.814,11.193,11.193,0,0,1-2.171,1.484" transform="translate(-1043.372 -224.687)" fill="#f2a181"/>
      <path id="Path_113" data-name="Path 113" d="M1077.1,231.033c-1.407.406-2.15,2.221-2.628,3.464a19.345,19.345,0,0,0-1.052,4.674,6.414,6.414,0,0,0,.229,3.288,6.906,6.906,0,0,0,.918,1.43,3.025,3.025,0,0,0,.661.7,1.02,1.02,0,0,0,.915.156c.438-.168.615-.683.739-1.137a29.962,29.962,0,0,1,3.362-8.505" transform="translate(-1041.078 -227.07)" fill="#170d54"/>
      <path id="Path_114" data-name="Path 114" d="M1075.7,238.164c-.027-.94-1.016-1.553-1.873-.581a6,6,0,0,0-.938,3.466c-.049,1.352,1,1.619,1.863,1.809" transform="translate(-1041.237 -224.852)" fill="#f2a181"/>
      <path id="Path_115" data-name="Path 115" d="M1068.238,256.55c1.735-1.99,7.245-5.273,14.608-5.04,5.072.16,18.888,1,20.432,4.391.79,1.735,1.637,19.5.481,25.624-.869,4.607-3.092,16.016-3.092,18.771s1.479,3.933.79,4.734c-1.547,1.791-12.118,2.542-17.081,2.542-4.417,0-11.936-1.178-12.317-2.593-.566-2.1.862-2.022,1.056-4.224s.75-16.5-.06-18.835c-1.463-4.224-2.173-11.112-3.334-14.236C1068.837,265.313,1066.5,258.54,1068.238,256.55Z" transform="translate(-1043.167 -219.577)" fill="#7a74d1"/>
      <path id="Path_116" data-name="Path 116" d="M1096.221,265.746c.526,1.1,4.1,6.844,4.1,6.844l.145.689a28.447,28.447,0,0,1-.364,3.071c-.869,4.607-3.092,16.016-3.092,18.771s1.417,3.884.79,4.734c-1.219,1.652-21.152,5.366-20.171.754.089-.417,16.728-13.115,16.818-13.54.767-3.643,1.435-6.269,1.772-8.926C1097.029,271.748,1095.693,264.651,1096.221,265.746Z" transform="translate(-1039.513 -214.402)" fill="#6960c4"/>
      <path id="Path_117" data-name="Path 117" d="M1076.27,247.829s-.047,5.779-.28,6.012a9.044,9.044,0,0,1-1.374.773s.814,5.022,2.073,4.649,9.57-4.57,9.57-4.57-1.179-.48-1.179-.945,1.119-9.555,1.119-9.555" transform="translate(-1040.604 -222.251)" fill="#ffbe9d"/>
      <path id="Path_118" data-name="Path 118" d="M1082.625,231.49c-1.212.331-4.4-.331-5.284.99s-1.652,4.514-1.982,5.395c-.657,1.753-1.086,3.627-1.563,5.434-.623,2.355-1.649,6.669.656,8.639a3.064,3.064,0,0,0,1.777.9c1.09.2,2.176.421,3.268.616a10.97,10.97,0,0,0,5.243.112c2.243-.728,3.473-3.813,4.049-5.907l3.3-12Z" transform="translate(-1041.188 -226.903)" fill="#ffbe9d"/>
      <path id="Path_119" data-name="Path 119" d="M1076.052,256.875s-.486,22.549-1.4,36.266l3.317,4.572,2.279-5.727a174.316,174.316,0,0,0-2.157-34.955Z" transform="translate(-1040.592 -217.609)" fill="#3b2e7a"/>
      <path id="Path_120" data-name="Path 120" d="M1075.117,255.806l.078.31a6.327,6.327,0,0,0,.686,1.671h0l2.034.157s1.384-.725,1.567-1.5-2.27-2.056-2.27-2.056l-.3.117a4.432,4.432,0,0,0-1.772,1.275Z" transform="translate(-1040.42 -218.521)" fill="#3b2e7a"/>
      <path id="Path_121" data-name="Path 121" d="M1084.476,250.159a8.5,8.5,0,0,1,2.321,2.352c-1.047,2.393-3.411,6.646-6.017,8.583a11.771,11.771,0,0,0-4.13-5.164S1083.747,254.669,1084.476,250.159Z" transform="translate(-1039.859 -220.067)" fill="#fff"/>
      <path id="Path_122" data-name="Path 122" d="M1077.765,255.849a8.743,8.743,0,0,0-4.047,3.847,19.353,19.353,0,0,1,.549-7.139s1.667-2.131,2.243-2.175A11.179,11.179,0,0,0,1077.765,255.849Z" transform="translate(-1040.974 -219.986)" fill="#fff"/>
      <g id="Group_277" data-name="Group 277" transform="translate(6.703 34.225)">
        <path id="Path_123" data-name="Path 123" d="M1078.248,291.235c-2.521.38-3.452,1.317-4.873,2.72a.521.521,0,0,0-.212.419c.033.2.268.29.47.322,1.171.189,1.361-.56,2.455-1.016.739-.309,1.473-.628,2.208-.949" transform="translate(-1047.84 -239.254)" fill="#f2a181"/>
        <g id="Group_276" data-name="Group 276" transform="translate(0 28.769)">
          <g id="Group_273" data-name="Group 273" transform="translate(0 3.642)">
            <path id="Path_124" data-name="Path 124" d="M1076.475,278.114l8.932,28.626a1.023,1.023,0,0,1-.946,1.436l-18.637,1.635a1.727,1.727,0,0,1-1.561-1.2l-9.6-28.19c-.24-.768.869-1.866,1.618-1.872l18.636-1.635A1.724,1.724,0,0,1,1076.475,278.114Z" transform="translate(-1054.626 -276.91)" fill="#e9e6ff"/>
          </g>
          <g id="Group_274" data-name="Group 274" transform="translate(0.027 4.39)">
            <path id="Path_125" data-name="Path 125" d="M1075.857,278.661l8.806,28.184a1.024,1.024,0,0,1-.945,1.437l-18.637,1.635a1.729,1.729,0,0,1-1.562-1.2l-8.807-28.183a1.025,1.025,0,0,1,.947-1.437l18.635-1.635A1.731,1.731,0,0,1,1075.857,278.661Z" transform="translate(-1054.646 -277.457)" fill="#e0d9ff"/>
          </g>
          <g id="Group_275" data-name="Group 275" transform="translate(6.351)">
            <path id="Path_126" data-name="Path 126" d="M1059.274,277.872l.661,2.471,8.716-.77-.717-2.461Z" transform="translate(-1059.274 -273.194)" fill="#fff"/>
            <path id="Path_127" data-name="Path 127" d="M1060.511,276.627c.18.575.873,2.8.873,2.8l4.161-.385-.873-2.8a2.831,2.831,0,0,0-2.762-1.989A1.7,1.7,0,0,0,1060.511,276.627Zm.922-.057a.956.956,0,0,1,.786-1.332,1.59,1.59,0,0,1,1.549,1.116.955.955,0,0,1-.786,1.332A1.587,1.587,0,0,1,1061.434,276.569Z" transform="translate(-1058.861 -274.244)" fill="#fff"/>
          </g>
        </g>
        <path id="Path_128" data-name="Path 128" d="M1085.515,289.772c-1.955.407-7.165,1.962-7.712,2.22a23.067,23.067,0,0,0-3.322,2.456c-1.961,1.966-.958,2.884-1.731,5.551a1.52,1.52,0,0,0-.048.423c0,.277.376.518.754.258.2.343.81.131,1.1-.243,0,.266.369.434.969.1.324-.179.266-.163,1.015-.831a7.876,7.876,0,0,1,2.12-1.291,15.3,15.3,0,0,0,2.068-.945c.792-.52,2.2-.645,2.9-2.9a2.251,2.251,0,0,1,1.088-1.086l3.186-2" transform="translate(-1048.007 -239.79)" fill="#ffbe9d"/>
        <path id="Path_129" data-name="Path 129" d="M1094.936,266.5c.828,2.956,4.277,23.441,4.277,23.441l-19.426,14.068,1.618,4.249s23.242-7.8,25.073-13.138,1.746-29.43-4.709-37.884c-2.054-2.691-6.172-4.049-6.172-4.049" transform="translate(-1045.413 -253.185)" fill="#7a74d1"/>
        <path id="Path_130" data-name="Path 130" d="M1077.075,295.171a12.674,12.674,0,0,0-1.358,1.044c-.553.585-.97,1.232-1.564,1.932" transform="translate(-1047.476 -237.813)" fill="none" stroke="#f2a181" stroke-miterlimit="10" stroke-width="0.25"/>
        <path id="Path_131" data-name="Path 131" d="M1076.28,294.229a7.016,7.016,0,0,0-1.6,1.941,26.234,26.234,0,0,1-1.275,2.46" transform="translate(-1047.75 -238.158)" fill="none" stroke="#f2a181" stroke-miterlimit="10" stroke-width="0.25"/>
        <path id="Path_132" data-name="Path 132" d="M1075.213,293.467c-.187.3-.986,1.053-1.147,1.369a12.383,12.383,0,0,0-1.107,3.163" transform="translate(-1047.913 -238.437)" fill="none" stroke="#f2a181" stroke-miterlimit="10" stroke-width="0.25"/>
      </g>
      <path id="Path_133" data-name="Path 133" d="M1089.744,246.822c-.761-.445-1.344-.915-1.84-.186-.262.387-.422.921-.87,1.053a.9.9,0,0,1-1.019-.721,2.6,2.6,0,0,1,.168-1.37q.457-1.475.917-2.952a4.447,4.447,0,0,0,.214-2.956,3.233,3.233,0,0,0-.933-1.194,9.888,9.888,0,0,0-4.531-1.94,47.821,47.821,0,0,1-4.879-1,5.261,5.261,0,0,1-1.858-.934,4.009,4.009,0,0,1-1.317-3,6.208,6.208,0,0,1,.952-3.2,5.409,5.409,0,0,0,.488,1.111,4.13,4.13,0,0,1,.889-1.393c.474,2.643,11.6,1.76,14.2,2.926,1.8.807,3.294,1.336,3.239,4.257a1.072,1.072,0,0,0,.353.464c1.6,1.467,2.288,3.251,2.489,5.9.246,3.243-1.642,6.753-3.493,9.426a6.016,6.016,0,0,1-1.374,1.643,3.648,3.648,0,0,1-2.586.585c-.8-.153-2.384-.085-2.4-.9-.011-.585,1.238-1.627,1.585-2.1" transform="translate(-1040.904 -228.132)" fill="#3b2e7a"/>
      <path id="Path_134" data-name="Path 134" d="M1083.344,245.145a1.02,1.02,0,0,0,1.526,1.157,3.518,3.518,0,0,0,2.221-2.724c.262-1.4-.492-2.8-1.775-2.44a1.893,1.893,0,0,0-1.212,1.846" transform="translate(-1037.417 -223.392)" fill="#ffbe9d"/>
      <path id="Path_135" data-name="Path 135" d="M1075.843,247.217l3.571.657a4.979,4.979,0,0,1-3.617,1.335" transform="translate(-1040.172 -221.145)" fill="#f2a181"/>
    </g>
  </g>
  <g id="Group_282" data-name="Group 282" transform="translate(76.349 84.11)" opacity="0.3">
    <g id="Group_281" data-name="Group 281">
      <g id="Group_280" data-name="Group 280" transform="translate(14.841 13.583)">
        <path id="Path_136" data-name="Path 136" d="M870.648,203.337l4.783,2.408-2.391-5.868" transform="translate(-870.648 -199.876)" fill="#3939d3"/>
      </g>
      <path id="Path_137" data-name="Path 137" d="M859.784,199.474c0,5.269,4.527,9.541,10.109,9.541S880,204.743,880,199.474s-4.526-9.541-10.109-9.541S859.784,194.2,859.784,199.474Z" transform="translate(-859.784 -189.933)" fill="#3939d3"/>
    </g>
    <path id="Path_138" data-name="Path 138" d="M865.373,194.815v6.82a.714.714,0,0,0,1.071.619l5.907-3.41a.714.714,0,0,0,0-1.238l-5.907-3.41A.714.714,0,0,0,865.373,194.815Z" transform="translate(-857.738 -188.408)" fill="#fefefe"/>
  </g>
  <g id="Group_287" data-name="Group 287" transform="translate(416.684 156.654)" opacity="0.3">
    <g id="Group_284" data-name="Group 284">
      <g id="Group_283" data-name="Group 283" transform="translate(0.595 13.583)">
        <path id="Path_139" data-name="Path 139" d="M1114.127,256.439l-4.783,2.408,2.391-5.868" transform="translate(-1109.344 -252.978)" fill="#3939d3"/>
      </g>
      <path id="Path_140" data-name="Path 140" d="M1129.128,252.576c0,5.269-4.526,9.541-10.109,9.541s-10.109-4.272-10.109-9.541,4.526-9.541,10.109-9.541S1129.128,247.307,1129.128,252.576Z" transform="translate(-1108.909 -243.035)" fill="#3939d3"/>
    </g>
    <g id="Group_286" data-name="Group 286" transform="translate(4.173 3.135)">
      <g id="Group_285" data-name="Group 285" transform="translate(4.048)">
        <path id="Path_141" data-name="Path 141" d="M1115.008,256.306c2.2.036,4.435.064,6.46-.068.641-.042,1.2-1,.417-1.307a1.417,1.417,0,0,0,.8-.659.639.639,0,0,0-.391-.859c.765.179,1.066-.966.47-1.335a1.677,1.677,0,0,0,.645-.975.957.957,0,0,0-.466-1.008,1.761,1.761,0,0,0-.794-.13l-2.749-.019a5.681,5.681,0,0,0-.406-4.016c-.22-.358-.809-.787-1.277-.511-.439.258-.317.9-.3,1.3a4.527,4.527,0,0,1-2.5,4.169S1115.031,254.476,1115.008,256.306Z" transform="translate(-1114.927 -245.33)" fill="#fefefe"/>
      </g>
      <rect id="Rectangle_107" data-name="Rectangle 107" width="3.33" height="5.409" transform="translate(0 5.562)" fill="#fefefe"/>
    </g>
  </g>
  <g id="Group_292" data-name="Group 292" transform="translate(256.13 84.859)" opacity="0.3">
    <g id="Group_289" data-name="Group 289">
      <g id="Group_288" data-name="Group 288" transform="translate(11.636 2.272)">
        <path id="Path_142" data-name="Path 142" d="M1001.194,195.914l3.49-3.77-4.782.937" transform="translate(-999.902 -192.144)" fill="#3939d3"/>
      </g>
      <path id="Path_143" data-name="Path 143" d="M991.384,197.4a7.344,7.344,0,1,0,7.331-6.918A7.134,7.134,0,0,0,991.384,197.4Z" transform="translate(-991.384 -190.481)" fill="#3939d3"/>
    </g>
    <g id="Group_291" data-name="Group 291" transform="translate(3.221 2.272)">
      <g id="Group_290" data-name="Group 290" transform="translate(2.652)">
        <path id="Path_144" data-name="Path 144" d="M995.737,200.1c1.444.025,2.9.045,4.232-.051.419-.03.783-.728.273-.948a.957.957,0,0,0,.526-.477.478.478,0,0,0-.255-.623c.5.13.7-.7.307-.969a1.228,1.228,0,0,0,.422-.706.721.721,0,0,0-.3-.732,1.053,1.053,0,0,0-.52-.093l-1.8-.015a4.515,4.515,0,0,0-.266-2.913c-.143-.26-.53-.57-.836-.37-.288.187-.208.653-.193.947a3.348,3.348,0,0,1-1.638,3.023S995.751,198.778,995.737,200.1Z" transform="translate(-995.683 -192.144)" fill="#fefefe"/>
      </g>
      <rect id="Rectangle_108" data-name="Rectangle 108" width="2.182" height="3.923" transform="translate(0 4.033)" fill="#fefefe"/>
    </g>
  </g>
  <g id="Group_293" data-name="Group 293" transform="translate(283.923 22.773)" opacity="0.3">
    <path id="Path_145" data-name="Path 145" d="M1031,162.593a10.792,10.792,0,1,0-2.459,2.262l4.189,2.232Z" transform="translate(-1011.728 -145.034)" fill="#3939d3"/>
    <path id="Path_146" data-name="Path 146" d="M1016.52,150.991a2.641,2.641,0,0,1,3.735.04l.673.687.691-.682a2.641,2.641,0,1,1,3.706,3.764l-2.568,2.53-.015.018a2.642,2.642,0,0,1-3.735-.04l-2.527-2.581A2.643,2.643,0,0,1,1016.52,150.991Z" transform="translate(-1010.264 -143.129)" fill="#fff"/>
  </g>
</svg>
